<?xml version="1.0" encoding="utf-8" standalone="no"?>
<!DOCTYPE svg PUBLIC "-//W3C//DTD SVG 1.1//EN"
  "http://www.w3.org/Graphics/SVG/1.1/DTD/svg11.dtd">
<svg xmlns:xlink="http://www.w3.org/1999/xlink" width="431.0875pt" height="490.469962pt" viewBox="0 0 431.0875 490.469962" xmlns="http://www.w3.org/2000/svg" version="1.1">
 <metadata>
  <rdf:RDF xmlns:dc="http://purl.org/dc/elements/1.1/" xmlns:cc="http://creativecommons.org/ns#" xmlns:rdf="http://www.w3.org/1999/02/22-rdf-syntax-ns#">
   <cc:Work>
    <dc:type rdf:resource="http://purl.org/dc/dcmitype/StillImage"/>
    <dc:date>2024-02-01T16:55:28.820674</dc:date>
    <dc:format>image/svg+xml</dc:format>
    <dc:creator>
     <cc:Agent>
      <dc:title>Matplotlib v3.8.1, https://matplotlib.org/</dc:title>
     </cc:Agent>
    </dc:creator>
   </cc:Work>
  </rdf:RDF>
 </metadata>
 <defs>
  <style type="text/css">*{stroke-linejoin: round; stroke-linecap: butt}</style>
 </defs>
 <g id="figure_1">
  <g id="patch_1">
   <path d="M 0 490.469962 
L 431.0875 490.469962 
L 431.0875 0 
L 0 0 
z
" style="fill: #ffffff"/>
  </g>
  <g id="axes_1">
   <g id="patch_2">
    <path d="M 33.2875 85.862677 
L 423.8875 85.862677 
L 423.8875 9.393712 
L 33.2875 9.393712 
z
" style="fill: #ffffff"/>
   </g>
   <g id="matplotlib.axis_1">
    <g id="xtick_1">
     <g id="line2d_1">
      <defs>
       <path id="mcdf59e9709" d="M 0 0 
L 0 3.5 
" style="stroke: #000000; stroke-width: 0.8"/>
      </defs>
      <g>
       <use xlink:href="#mcdf59e9709" x="49.858409" y="85.862677" style="stroke: #000000; stroke-width: 0.8"/>
      </g>
     </g>
    </g>
    <g id="xtick_2">
     <g id="line2d_2">
      <g>
       <use xlink:href="#mcdf59e9709" x="109.040227" y="85.862677" style="stroke: #000000; stroke-width: 0.8"/>
      </g>
     </g>
    </g>
    <g id="xtick_3">
     <g id="line2d_3">
      <g>
       <use xlink:href="#mcdf59e9709" x="168.222045" y="85.862677" style="stroke: #000000; stroke-width: 0.8"/>
      </g>
     </g>
    </g>
    <g id="xtick_4">
     <g id="line2d_4">
      <g>
       <use xlink:href="#mcdf59e9709" x="227.403864" y="85.862677" style="stroke: #000000; stroke-width: 0.8"/>
      </g>
     </g>
    </g>
    <g id="xtick_5">
     <g id="line2d_5">
      <g>
       <use xlink:href="#mcdf59e9709" x="286.585682" y="85.862677" style="stroke: #000000; stroke-width: 0.8"/>
      </g>
     </g>
    </g>
    <g id="xtick_6">
     <g id="line2d_6">
      <g>
       <use xlink:href="#mcdf59e9709" x="345.7675" y="85.862677" style="stroke: #000000; stroke-width: 0.8"/>
      </g>
     </g>
    </g>
    <g id="xtick_7">
     <g id="line2d_7">
      <g>
       <use xlink:href="#mcdf59e9709" x="404.949318" y="85.862677" style="stroke: #000000; stroke-width: 0.8"/>
      </g>
     </g>
    </g>
   </g>
   <g id="matplotlib.axis_2">
    <g id="ytick_1">
     <g id="line2d_8">
      <defs>
       <path id="me7ed58b17d" d="M 0 0 
L -3.5 0 
" style="stroke: #000000; stroke-width: 0.8"/>
      </defs>
      <g>
       <use xlink:href="#me7ed58b17d" x="33.2875" y="82.386815" style="stroke: #000000; stroke-width: 0.8"/>
      </g>
     </g>
     <g id="text_1">
      <!-- 0 -->
      <g transform="translate(19.925 86.186034) scale(0.1 -0.1)">
       <defs>
        <path id="DejaVuSans-30" d="M 2034 4250 
Q 1547 4250 1301 3770 
Q 1056 3291 1056 2328 
Q 1056 1369 1301 889 
Q 1547 409 2034 409 
Q 2525 409 2770 889 
Q 3016 1369 3016 2328 
Q 3016 3291 2770 3770 
Q 2525 4250 2034 4250 
z
M 2034 4750 
Q 2819 4750 3233 4129 
Q 3647 3509 3647 2328 
Q 3647 1150 3233 529 
Q 2819 -91 2034 -91 
Q 1250 -91 836 529 
Q 422 1150 422 2328 
Q 422 3509 836 4129 
Q 1250 4750 2034 4750 
z
" transform="scale(0.015625)"/>
       </defs>
       <use xlink:href="#DejaVuSans-30"/>
      </g>
     </g>
    </g>
    <g id="ytick_2">
     <g id="line2d_9">
      <g>
       <use xlink:href="#me7ed58b17d" x="33.2875" y="46.693017" style="stroke: #000000; stroke-width: 0.8"/>
      </g>
     </g>
     <g id="text_2">
      <!-- 50 -->
      <g transform="translate(13.5625 50.492236) scale(0.1 -0.1)">
       <defs>
        <path id="DejaVuSans-35" d="M 691 4666 
L 3169 4666 
L 3169 4134 
L 1269 4134 
L 1269 2991 
Q 1406 3038 1543 3061 
Q 1681 3084 1819 3084 
Q 2600 3084 3056 2656 
Q 3513 2228 3513 1497 
Q 3513 744 3044 326 
Q 2575 -91 1722 -91 
Q 1428 -91 1123 -41 
Q 819 9 494 109 
L 494 744 
Q 775 591 1075 516 
Q 1375 441 1709 441 
Q 2250 441 2565 725 
Q 2881 1009 2881 1497 
Q 2881 1984 2565 2268 
Q 2250 2553 1709 2553 
Q 1456 2553 1204 2497 
Q 953 2441 691 2322 
L 691 4666 
z
" transform="scale(0.015625)"/>
       </defs>
       <use xlink:href="#DejaVuSans-35"/>
       <use xlink:href="#DejaVuSans-30" x="63.623047"/>
      </g>
     </g>
    </g>
    <g id="ytick_3">
     <g id="line2d_10">
      <g>
       <use xlink:href="#me7ed58b17d" x="33.2875" y="10.999219" style="stroke: #000000; stroke-width: 0.8"/>
      </g>
     </g>
     <g id="text_3">
      <!-- 100 -->
      <g transform="translate(7.2 14.798437) scale(0.1 -0.1)">
       <defs>
        <path id="DejaVuSans-31" d="M 794 531 
L 1825 531 
L 1825 4091 
L 703 3866 
L 703 4441 
L 1819 4666 
L 2450 4666 
L 2450 531 
L 3481 531 
L 3481 0 
L 794 0 
L 794 531 
z
" transform="scale(0.015625)"/>
       </defs>
       <use xlink:href="#DejaVuSans-31"/>
       <use xlink:href="#DejaVuSans-30" x="63.623047"/>
       <use xlink:href="#DejaVuSans-30" x="127.246094"/>
      </g>
     </g>
    </g>
   </g>
   <g id="line2d_11">
    <path d="M 51.042045 15.068312 
L 52.225682 15.675106 
L 53.409318 16.952944 
L 54.592955 14.868426 
L 55.776591 15.118283 
L 56.960227 16.845863 
L 60.511136 14.047469 
L 61.694773 16.181958 
L 62.878409 15.560886 
L 64.062045 15.289613 
L 65.245682 15.232503 
L 66.429318 15.775049 
L 67.612955 24.134536 
L 68.796591 15.353862 
L 69.980227 15.468082 
L 71.163864 15.061173 
L 72.3475 15.289613 
L 73.531136 16.503202 
L 74.714773 16.067738 
L 75.898409 15.817882 
L 77.082045 16.246207 
L 78.265682 13.533478 
L 79.449318 15.161116 
L 80.632955 15.946379 
L 81.816591 19.551453 
L 83.000227 16.024906 
L 84.183864 15.974934 
L 85.3675 15.689384 
L 86.551136 15.161116 
L 87.734773 15.660829 
L 88.918409 15.88213 
L 90.102045 15.603719 
L 91.285682 15.125422 
L 92.469318 16.181958 
L 93.652955 16.103432 
L 94.836591 15.48236 
L 96.020227 21.40753 
L 97.203864 14.661402 
L 98.3875 15.446666 
L 99.571136 17.66682 
L 100.754773 16.267623 
L 101.938409 15.82502 
L 103.122045 15.59658 
L 104.305682 15.218226 
L 105.489318 15.468082 
L 106.672955 15.88213 
L 107.856591 15.125422 
L 109.040227 17.352715 
L 110.223864 62.15557 
L 111.4075 82.386815 
L 335.114773 82.386815 
L 337.482045 23.270747 
L 338.665682 25.883533 
L 339.849318 24.52003 
L 341.032955 25.141102 
L 343.400227 24.420087 
L 344.583864 17.995203 
L 346.951136 17.259911 
L 348.134773 15.732216 
L 349.318409 14.632847 
L 350.502045 15.760771 
L 351.685682 25.61226 
L 352.869318 16.367566 
L 354.052955 16.082016 
L 356.420227 15.089728 
L 357.603864 15.603719 
L 358.7875 15.76791 
L 359.971136 15.59658 
L 361.154773 13.633421 
L 362.338409 15.59658 
L 363.522045 15.546609 
L 364.705682 15.296752 
L 365.889318 17.902399 
L 367.072955 15.346723 
L 369.440227 15.211087 
L 370.623864 15.418111 
L 371.8075 15.739355 
L 372.991136 13.897555 
L 374.174773 15.275336 
L 375.358409 15.703661 
L 376.542045 15.48236 
L 377.725682 15.039757 
L 378.909318 14.761345 
L 380.092955 16.895834 
L 381.276591 16.060599 
L 383.643864 15.31103 
L 384.8275 14.497211 
L 386.011136 15.303891 
L 387.194773 15.468082 
L 388.378409 15.946379 
L 389.562045 15.703661 
L 391.929318 15.903547 
L 393.112955 15.553747 
L 394.296591 23.413522 
L 395.480227 15.039757 
L 396.663864 13.46923 
L 397.8475 15.632274 
L 399.031136 16.28904 
L 400.214773 15.525192 
L 401.398409 16.003489 
L 402.582045 15.318168 
L 403.765682 15.860714 
L 404.949318 12.869574 
L 406.132955 13.083737 
L 406.132955 13.083737 
" clip-path="url(#p31e2d7832d)" style="fill: none; stroke: #1f77b4; stroke-width: 1.5; stroke-linecap: square"/>
   </g>
   <g id="patch_3">
    <path d="M 33.2875 85.862677 
L 33.2875 9.393712 
" style="fill: none; stroke: #000000; stroke-width: 0.8; stroke-linejoin: miter; stroke-linecap: square"/>
   </g>
   <g id="patch_4">
    <path d="M 423.8875 85.862677 
L 423.8875 9.393712 
" style="fill: none; stroke: #000000; stroke-width: 0.8; stroke-linejoin: miter; stroke-linecap: square"/>
   </g>
   <g id="patch_5">
    <path d="M 33.2875 85.862677 
L 423.8875 85.862677 
" style="fill: none; stroke: #000000; stroke-width: 0.8; stroke-linejoin: miter; stroke-linecap: square"/>
   </g>
   <g id="patch_6">
    <path d="M 33.2875 9.393712 
L 423.8875 9.393712 
" style="fill: none; stroke: #000000; stroke-width: 0.8; stroke-linejoin: miter; stroke-linecap: square"/>
   </g>
   <g id="legend_1">
    <g id="patch_7">
     <path d="M 171.678906 80.862677 
L 285.496094 80.862677 
Q 287.496094 80.862677 287.496094 78.862677 
L 287.496094 65.184552 
Q 287.496094 63.184552 285.496094 63.184552 
L 171.678906 63.184552 
Q 169.678906 63.184552 169.678906 65.184552 
L 169.678906 78.862677 
Q 169.678906 80.862677 171.678906 80.862677 
z
" style="fill: #ffffff; opacity: 0.8; stroke: #cccccc; stroke-linejoin: miter"/>
    </g>
    <g id="line2d_12">
     <path d="M 173.678906 71.28299 
L 183.678906 71.28299 
L 193.678906 71.28299 
" style="fill: none; stroke: #1f77b4; stroke-width: 1.5; stroke-linecap: square"/>
    </g>
    <g id="text_4">
     <!-- (POLL%, Core-0) -->
     <g transform="translate(201.678906 74.78299) scale(0.1 -0.1)">
      <defs>
       <path id="DejaVuSans-28" d="M 1984 4856 
Q 1566 4138 1362 3434 
Q 1159 2731 1159 2009 
Q 1159 1288 1364 580 
Q 1569 -128 1984 -844 
L 1484 -844 
Q 1016 -109 783 600 
Q 550 1309 550 2009 
Q 550 2706 781 3412 
Q 1013 4119 1484 4856 
L 1984 4856 
z
" transform="scale(0.015625)"/>
       <path id="DejaVuSans-50" d="M 1259 4147 
L 1259 2394 
L 2053 2394 
Q 2494 2394 2734 2622 
Q 2975 2850 2975 3272 
Q 2975 3691 2734 3919 
Q 2494 4147 2053 4147 
L 1259 4147 
z
M 628 4666 
L 2053 4666 
Q 2838 4666 3239 4311 
Q 3641 3956 3641 3272 
Q 3641 2581 3239 2228 
Q 2838 1875 2053 1875 
L 1259 1875 
L 1259 0 
L 628 0 
L 628 4666 
z
" transform="scale(0.015625)"/>
       <path id="DejaVuSans-4f" d="M 2522 4238 
Q 1834 4238 1429 3725 
Q 1025 3213 1025 2328 
Q 1025 1447 1429 934 
Q 1834 422 2522 422 
Q 3209 422 3611 934 
Q 4013 1447 4013 2328 
Q 4013 3213 3611 3725 
Q 3209 4238 2522 4238 
z
M 2522 4750 
Q 3503 4750 4090 4092 
Q 4678 3434 4678 2328 
Q 4678 1225 4090 567 
Q 3503 -91 2522 -91 
Q 1538 -91 948 565 
Q 359 1222 359 2328 
Q 359 3434 948 4092 
Q 1538 4750 2522 4750 
z
" transform="scale(0.015625)"/>
       <path id="DejaVuSans-4c" d="M 628 4666 
L 1259 4666 
L 1259 531 
L 3531 531 
L 3531 0 
L 628 0 
L 628 4666 
z
" transform="scale(0.015625)"/>
       <path id="DejaVuSans-25" d="M 4653 2053 
Q 4381 2053 4226 1822 
Q 4072 1591 4072 1178 
Q 4072 772 4226 539 
Q 4381 306 4653 306 
Q 4919 306 5073 539 
Q 5228 772 5228 1178 
Q 5228 1588 5073 1820 
Q 4919 2053 4653 2053 
z
M 4653 2450 
Q 5147 2450 5437 2106 
Q 5728 1763 5728 1178 
Q 5728 594 5436 251 
Q 5144 -91 4653 -91 
Q 4153 -91 3862 251 
Q 3572 594 3572 1178 
Q 3572 1766 3864 2108 
Q 4156 2450 4653 2450 
z
M 1428 4353 
Q 1159 4353 1004 4120 
Q 850 3888 850 3481 
Q 850 3069 1003 2837 
Q 1156 2606 1428 2606 
Q 1700 2606 1854 2837 
Q 2009 3069 2009 3481 
Q 2009 3884 1853 4118 
Q 1697 4353 1428 4353 
z
M 4250 4750 
L 4750 4750 
L 1831 -91 
L 1331 -91 
L 4250 4750 
z
M 1428 4750 
Q 1922 4750 2215 4408 
Q 2509 4066 2509 3481 
Q 2509 2891 2217 2550 
Q 1925 2209 1428 2209 
Q 931 2209 642 2551 
Q 353 2894 353 3481 
Q 353 4063 643 4406 
Q 934 4750 1428 4750 
z
" transform="scale(0.015625)"/>
       <path id="DejaVuSans-2c" d="M 750 794 
L 1409 794 
L 1409 256 
L 897 -744 
L 494 -744 
L 750 256 
L 750 794 
z
" transform="scale(0.015625)"/>
       <path id="DejaVuSans-20" transform="scale(0.015625)"/>
       <path id="DejaVuSans-43" d="M 4122 4306 
L 4122 3641 
Q 3803 3938 3442 4084 
Q 3081 4231 2675 4231 
Q 1875 4231 1450 3742 
Q 1025 3253 1025 2328 
Q 1025 1406 1450 917 
Q 1875 428 2675 428 
Q 3081 428 3442 575 
Q 3803 722 4122 1019 
L 4122 359 
Q 3791 134 3420 21 
Q 3050 -91 2638 -91 
Q 1578 -91 968 557 
Q 359 1206 359 2328 
Q 359 3453 968 4101 
Q 1578 4750 2638 4750 
Q 3056 4750 3426 4639 
Q 3797 4528 4122 4306 
z
" transform="scale(0.015625)"/>
       <path id="DejaVuSans-6f" d="M 1959 3097 
Q 1497 3097 1228 2736 
Q 959 2375 959 1747 
Q 959 1119 1226 758 
Q 1494 397 1959 397 
Q 2419 397 2687 759 
Q 2956 1122 2956 1747 
Q 2956 2369 2687 2733 
Q 2419 3097 1959 3097 
z
M 1959 3584 
Q 2709 3584 3137 3096 
Q 3566 2609 3566 1747 
Q 3566 888 3137 398 
Q 2709 -91 1959 -91 
Q 1206 -91 779 398 
Q 353 888 353 1747 
Q 353 2609 779 3096 
Q 1206 3584 1959 3584 
z
" transform="scale(0.015625)"/>
       <path id="DejaVuSans-72" d="M 2631 2963 
Q 2534 3019 2420 3045 
Q 2306 3072 2169 3072 
Q 1681 3072 1420 2755 
Q 1159 2438 1159 1844 
L 1159 0 
L 581 0 
L 581 3500 
L 1159 3500 
L 1159 2956 
Q 1341 3275 1631 3429 
Q 1922 3584 2338 3584 
Q 2397 3584 2469 3576 
Q 2541 3569 2628 3553 
L 2631 2963 
z
" transform="scale(0.015625)"/>
       <path id="DejaVuSans-65" d="M 3597 1894 
L 3597 1613 
L 953 1613 
Q 991 1019 1311 708 
Q 1631 397 2203 397 
Q 2534 397 2845 478 
Q 3156 559 3463 722 
L 3463 178 
Q 3153 47 2828 -22 
Q 2503 -91 2169 -91 
Q 1331 -91 842 396 
Q 353 884 353 1716 
Q 353 2575 817 3079 
Q 1281 3584 2069 3584 
Q 2775 3584 3186 3129 
Q 3597 2675 3597 1894 
z
M 3022 2063 
Q 3016 2534 2758 2815 
Q 2500 3097 2075 3097 
Q 1594 3097 1305 2825 
Q 1016 2553 972 2059 
L 3022 2063 
z
" transform="scale(0.015625)"/>
       <path id="DejaVuSans-2d" d="M 313 2009 
L 1997 2009 
L 1997 1497 
L 313 1497 
L 313 2009 
z
" transform="scale(0.015625)"/>
       <path id="DejaVuSans-29" d="M 513 4856 
L 1013 4856 
Q 1481 4119 1714 3412 
Q 1947 2706 1947 2009 
Q 1947 1309 1714 600 
Q 1481 -109 1013 -844 
L 513 -844 
Q 928 -128 1133 580 
Q 1338 1288 1338 2009 
Q 1338 2731 1133 3434 
Q 928 4138 513 4856 
z
" transform="scale(0.015625)"/>
      </defs>
      <use xlink:href="#DejaVuSans-28"/>
      <use xlink:href="#DejaVuSans-50" x="39.013672"/>
      <use xlink:href="#DejaVuSans-4f" x="99.316406"/>
      <use xlink:href="#DejaVuSans-4c" x="178.027344"/>
      <use xlink:href="#DejaVuSans-4c" x="233.740234"/>
      <use xlink:href="#DejaVuSans-25" x="289.453125"/>
      <use xlink:href="#DejaVuSans-2c" x="384.472656"/>
      <use xlink:href="#DejaVuSans-20" x="416.259766"/>
      <use xlink:href="#DejaVuSans-43" x="448.046875"/>
      <use xlink:href="#DejaVuSans-6f" x="517.871094"/>
      <use xlink:href="#DejaVuSans-72" x="579.052734"/>
      <use xlink:href="#DejaVuSans-65" x="617.916016"/>
      <use xlink:href="#DejaVuSans-2d" x="679.439453"/>
      <use xlink:href="#DejaVuSans-30" x="715.523438"/>
      <use xlink:href="#DejaVuSans-29" x="779.146484"/>
     </g>
    </g>
   </g>
  </g>
  <g id="axes_2">
   <g id="patch_8">
    <path d="M 33.2875 177.625436 
L 423.8875 177.625436 
L 423.8875 101.15647 
L 33.2875 101.15647 
z
" style="fill: #ffffff"/>
   </g>
   <g id="matplotlib.axis_3">
    <g id="xtick_8">
     <g id="line2d_13">
      <g>
       <use xlink:href="#mcdf59e9709" x="49.858409" y="177.625436" style="stroke: #000000; stroke-width: 0.8"/>
      </g>
     </g>
    </g>
    <g id="xtick_9">
     <g id="line2d_14">
      <g>
       <use xlink:href="#mcdf59e9709" x="109.040227" y="177.625436" style="stroke: #000000; stroke-width: 0.8"/>
      </g>
     </g>
    </g>
    <g id="xtick_10">
     <g id="line2d_15">
      <g>
       <use xlink:href="#mcdf59e9709" x="168.222045" y="177.625436" style="stroke: #000000; stroke-width: 0.8"/>
      </g>
     </g>
    </g>
    <g id="xtick_11">
     <g id="line2d_16">
      <g>
       <use xlink:href="#mcdf59e9709" x="227.403864" y="177.625436" style="stroke: #000000; stroke-width: 0.8"/>
      </g>
     </g>
    </g>
    <g id="xtick_12">
     <g id="line2d_17">
      <g>
       <use xlink:href="#mcdf59e9709" x="286.585682" y="177.625436" style="stroke: #000000; stroke-width: 0.8"/>
      </g>
     </g>
    </g>
    <g id="xtick_13">
     <g id="line2d_18">
      <g>
       <use xlink:href="#mcdf59e9709" x="345.7675" y="177.625436" style="stroke: #000000; stroke-width: 0.8"/>
      </g>
     </g>
    </g>
    <g id="xtick_14">
     <g id="line2d_19">
      <g>
       <use xlink:href="#mcdf59e9709" x="404.949318" y="177.625436" style="stroke: #000000; stroke-width: 0.8"/>
      </g>
     </g>
    </g>
   </g>
   <g id="matplotlib.axis_4">
    <g id="ytick_4">
     <g id="line2d_20">
      <g>
       <use xlink:href="#me7ed58b17d" x="33.2875" y="174.149574" style="stroke: #000000; stroke-width: 0.8"/>
      </g>
     </g>
     <g id="text_5">
      <!-- 0 -->
      <g transform="translate(19.925 177.948793) scale(0.1 -0.1)">
       <use xlink:href="#DejaVuSans-30"/>
      </g>
     </g>
    </g>
    <g id="ytick_5">
     <g id="line2d_21">
      <g>
       <use xlink:href="#me7ed58b17d" x="33.2875" y="138.352848" style="stroke: #000000; stroke-width: 0.8"/>
      </g>
     </g>
     <g id="text_6">
      <!-- 50 -->
      <g transform="translate(13.5625 142.152067) scale(0.1 -0.1)">
       <use xlink:href="#DejaVuSans-35"/>
       <use xlink:href="#DejaVuSans-30" x="63.623047"/>
      </g>
     </g>
    </g>
    <g id="ytick_6">
     <g id="line2d_22">
      <g>
       <use xlink:href="#me7ed58b17d" x="33.2875" y="102.556122" style="stroke: #000000; stroke-width: 0.8"/>
      </g>
     </g>
     <g id="text_7">
      <!-- 100 -->
      <g transform="translate(7.2 106.355341) scale(0.1 -0.1)">
       <use xlink:href="#DejaVuSans-31"/>
       <use xlink:href="#DejaVuSans-30" x="63.623047"/>
       <use xlink:href="#DejaVuSans-30" x="127.246094"/>
      </g>
     </g>
    </g>
   </g>
   <g id="line2d_23">
    <path d="M 51.042045 106.543878 
L 52.225682 106.665586 
L 53.409318 115.120773 
L 54.592955 107.424477 
L 55.776591 106.715702 
L 56.960227 109.128401 
L 58.143864 106.909004 
L 59.3275 106.314779 
L 60.511136 105.104849 
L 61.694773 106.228866 
L 62.878409 106.644108 
L 65.245682 106.887526 
L 66.429318 106.672746 
L 67.612955 111.175974 
L 68.796591 106.916163 
L 69.980227 106.994916 
L 71.163864 107.818241 
L 72.3475 107.93995 
L 73.531136 107.653576 
L 74.714773 109.092604 
L 75.898409 107.653576 
L 77.082045 106.851729 
L 78.265682 104.925866 
L 79.449318 107.667895 
L 80.632955 106.787295 
L 81.816591 107.746648 
L 83.000227 106.579674 
L 84.183864 107.238334 
L 85.3675 107.116625 
L 86.551136 107.775285 
L 87.734773 107.997225 
L 88.918409 107.073669 
L 90.102045 107.553345 
L 91.285682 106.644108 
L 92.469318 107.080828 
L 93.652955 108.197686 
L 94.836591 107.753807 
L 96.020227 107.739488 
L 97.203864 105.742031 
L 99.571136 109.593759 
L 100.754773 107.61062 
L 101.938409 107.932791 
L 103.122045 107.624939 
L 104.305682 107.474592 
L 105.489318 107.181059 
L 106.672955 106.672746 
L 107.856591 107.338565 
L 109.040227 107.811082 
L 110.223864 118.54294 
L 113.774773 106.658427 
L 114.958409 111.691447 
L 116.142045 107.811082 
L 117.325682 143.772472 
L 118.509318 174.149574 
L 119.692955 174.149574 
L 120.876591 173.963431 
L 122.060227 174.113777 
L 123.243864 173.20454 
L 124.4275 174.149574 
L 343.400227 174.149574 
L 344.583864 115.536015 
L 345.7675 109.815698 
L 346.951136 108.970896 
L 348.134773 107.302768 
L 349.318409 106.142954 
L 350.502045 107.796763 
L 351.685682 109.90877 
L 352.869318 108.319395 
L 354.052955 108.118933 
L 355.236591 107.653576 
L 356.420227 107.997225 
L 357.603864 107.546186 
L 358.7875 108.226324 
L 359.971136 107.009235 
L 361.154773 106.057042 
L 362.338409 106.558196 
L 363.522045 106.722861 
L 364.705682 107.324246 
L 365.889318 112.321469 
L 367.072955 107.159581 
L 368.256591 106.551037 
L 369.440227 107.367202 
L 370.623864 107.639257 
L 371.8075 106.558196 
L 372.991136 105.119168 
L 374.174773 106.815933 
L 375.358409 106.994916 
L 376.542045 106.758658 
L 377.725682 107.030713 
L 378.909318 106.565356 
L 380.092955 112.550568 
L 381.276591 107.166741 
L 382.460227 108.312236 
L 383.643864 106.221707 
L 384.8275 106.099998 
L 386.011136 106.694224 
L 387.194773 106.687064 
L 388.378409 107.49607 
L 389.562045 107.302768 
L 390.745682 106.880367 
L 391.929318 107.818241 
L 393.112955 107.531867 
L 394.296591 111.533941 
L 395.480227 106.400691 
L 396.663864 105.412701 
L 397.8475 107.045032 
L 399.031136 107.61062 
L 400.214773 106.994916 
L 401.398409 106.672746 
L 402.582045 106.994916 
L 403.765682 106.787295 
L 404.949318 104.632332 
L 406.132955 104.9903 
L 406.132955 104.9903 
" clip-path="url(#paf9149d4d3)" style="fill: none; stroke: #ff7f0e; stroke-width: 1.5; stroke-linecap: square"/>
   </g>
   <g id="patch_9">
    <path d="M 33.2875 177.625436 
L 33.2875 101.15647 
" style="fill: none; stroke: #000000; stroke-width: 0.8; stroke-linejoin: miter; stroke-linecap: square"/>
   </g>
   <g id="patch_10">
    <path d="M 423.8875 177.625436 
L 423.8875 101.15647 
" style="fill: none; stroke: #000000; stroke-width: 0.8; stroke-linejoin: miter; stroke-linecap: square"/>
   </g>
   <g id="patch_11">
    <path d="M 33.2875 177.625436 
L 423.8875 177.625436 
" style="fill: none; stroke: #000000; stroke-width: 0.8; stroke-linejoin: miter; stroke-linecap: square"/>
   </g>
   <g id="patch_12">
    <path d="M 33.2875 101.15647 
L 423.8875 101.15647 
" style="fill: none; stroke: #000000; stroke-width: 0.8; stroke-linejoin: miter; stroke-linecap: square"/>
   </g>
   <g id="legend_2">
    <g id="patch_13">
     <path d="M 171.678906 172.625436 
L 285.496094 172.625436 
Q 287.496094 172.625436 287.496094 170.625436 
L 287.496094 156.947311 
Q 287.496094 154.947311 285.496094 154.947311 
L 171.678906 154.947311 
Q 169.678906 154.947311 169.678906 156.947311 
L 169.678906 170.625436 
Q 169.678906 172.625436 171.678906 172.625436 
z
" style="fill: #ffffff; opacity: 0.8; stroke: #cccccc; stroke-linejoin: miter"/>
    </g>
    <g id="line2d_24">
     <path d="M 173.678906 163.045748 
L 183.678906 163.045748 
L 193.678906 163.045748 
" style="fill: none; stroke: #ff7f0e; stroke-width: 1.5; stroke-linecap: square"/>
    </g>
    <g id="text_8">
     <!-- (POLL%, Core-1) -->
     <g transform="translate(201.678906 166.545748) scale(0.1 -0.1)">
      <use xlink:href="#DejaVuSans-28"/>
      <use xlink:href="#DejaVuSans-50" x="39.013672"/>
      <use xlink:href="#DejaVuSans-4f" x="99.316406"/>
      <use xlink:href="#DejaVuSans-4c" x="178.027344"/>
      <use xlink:href="#DejaVuSans-4c" x="233.740234"/>
      <use xlink:href="#DejaVuSans-25" x="289.453125"/>
      <use xlink:href="#DejaVuSans-2c" x="384.472656"/>
      <use xlink:href="#DejaVuSans-20" x="416.259766"/>
      <use xlink:href="#DejaVuSans-43" x="448.046875"/>
      <use xlink:href="#DejaVuSans-6f" x="517.871094"/>
      <use xlink:href="#DejaVuSans-72" x="579.052734"/>
      <use xlink:href="#DejaVuSans-65" x="617.916016"/>
      <use xlink:href="#DejaVuSans-2d" x="679.439453"/>
      <use xlink:href="#DejaVuSans-31" x="715.523438"/>
      <use xlink:href="#DejaVuSans-29" x="779.146484"/>
     </g>
    </g>
   </g>
  </g>
  <g id="axes_3">
   <g id="patch_14">
    <path d="M 33.2875 269.388194 
L 423.8875 269.388194 
L 423.8875 192.919229 
L 33.2875 192.919229 
z
" style="fill: #ffffff"/>
   </g>
   <g id="matplotlib.axis_5">
    <g id="xtick_15">
     <g id="line2d_25">
      <g>
       <use xlink:href="#mcdf59e9709" x="49.858409" y="269.388194" style="stroke: #000000; stroke-width: 0.8"/>
      </g>
     </g>
    </g>
    <g id="xtick_16">
     <g id="line2d_26">
      <g>
       <use xlink:href="#mcdf59e9709" x="109.040227" y="269.388194" style="stroke: #000000; stroke-width: 0.8"/>
      </g>
     </g>
    </g>
    <g id="xtick_17">
     <g id="line2d_27">
      <g>
       <use xlink:href="#mcdf59e9709" x="168.222045" y="269.388194" style="stroke: #000000; stroke-width: 0.8"/>
      </g>
     </g>
    </g>
    <g id="xtick_18">
     <g id="line2d_28">
      <g>
       <use xlink:href="#mcdf59e9709" x="227.403864" y="269.388194" style="stroke: #000000; stroke-width: 0.8"/>
      </g>
     </g>
    </g>
    <g id="xtick_19">
     <g id="line2d_29">
      <g>
       <use xlink:href="#mcdf59e9709" x="286.585682" y="269.388194" style="stroke: #000000; stroke-width: 0.8"/>
      </g>
     </g>
    </g>
    <g id="xtick_20">
     <g id="line2d_30">
      <g>
       <use xlink:href="#mcdf59e9709" x="345.7675" y="269.388194" style="stroke: #000000; stroke-width: 0.8"/>
      </g>
     </g>
    </g>
    <g id="xtick_21">
     <g id="line2d_31">
      <g>
       <use xlink:href="#mcdf59e9709" x="404.949318" y="269.388194" style="stroke: #000000; stroke-width: 0.8"/>
      </g>
     </g>
    </g>
   </g>
   <g id="matplotlib.axis_6">
    <g id="ytick_7">
     <g id="line2d_32">
      <g>
       <use xlink:href="#me7ed58b17d" x="33.2875" y="265.912332" style="stroke: #000000; stroke-width: 0.8"/>
      </g>
     </g>
     <g id="text_9">
      <!-- 0 -->
      <g transform="translate(19.925 269.711551) scale(0.1 -0.1)">
       <use xlink:href="#DejaVuSans-30"/>
      </g>
     </g>
    </g>
    <g id="ytick_8">
     <g id="line2d_33">
      <g>
       <use xlink:href="#me7ed58b17d" x="33.2875" y="229.974966" style="stroke: #000000; stroke-width: 0.8"/>
      </g>
     </g>
     <g id="text_10">
      <!-- 50 -->
      <g transform="translate(13.5625 233.774185) scale(0.1 -0.1)">
       <use xlink:href="#DejaVuSans-35"/>
       <use xlink:href="#DejaVuSans-30" x="63.623047"/>
      </g>
     </g>
    </g>
    <g id="ytick_9">
     <g id="line2d_34">
      <g>
       <use xlink:href="#me7ed58b17d" x="33.2875" y="194.0376" style="stroke: #000000; stroke-width: 0.8"/>
      </g>
     </g>
     <g id="text_11">
      <!-- 100 -->
      <g transform="translate(7.2 197.836819) scale(0.1 -0.1)">
       <use xlink:href="#DejaVuSans-31"/>
       <use xlink:href="#DejaVuSans-30" x="63.623047"/>
       <use xlink:href="#DejaVuSans-30" x="127.246094"/>
      </g>
     </g>
    </g>
   </g>
   <g id="line2d_35">
    <path d="M 51.042045 199.255705 
L 52.225682 199.521642 
L 53.409318 200.944762 
L 54.592955 199.794766 
L 55.776591 199.320393 
L 56.960227 199.916953 
L 60.511136 196.76884 
L 61.694773 199.083206 
L 64.062045 199.032894 
L 65.245682 198.328521 
L 66.429318 198.551333 
L 67.612955 198.536958 
L 68.796591 198.084147 
L 69.980227 198.565708 
L 71.163864 198.220709 
L 72.3475 198.810082 
L 73.531136 198.78852 
L 74.714773 199.557579 
L 75.898409 199.155081 
L 77.082045 198.350084 
L 78.265682 196.661028 
L 79.449318 198.544146 
L 80.632955 198.64477 
L 81.816591 206.299429 
L 83.000227 198.544146 
L 84.183864 198.321334 
L 85.3675 197.818211 
L 86.551136 198.989769 
L 87.734773 197.954773 
L 88.918409 198.881957 
L 90.102045 198.112897 
L 91.285682 198.127272 
L 92.469318 198.256647 
L 93.652955 198.64477 
L 94.836591 198.213522 
L 96.020227 201.332885 
L 97.203864 197.796648 
L 98.3875 198.565708 
L 99.571136 199.866641 
L 100.754773 199.593517 
L 101.938409 198.199147 
L 103.122045 198.026647 
L 104.305682 198.745395 
L 105.489318 197.99071 
L 106.672955 198.659145 
L 107.856591 198.774145 
L 109.040227 198.206334 
L 110.223864 203.079441 
L 111.4075 206.220367 
L 112.591136 204.70381 
L 113.774773 199.191018 
L 114.958409 201.792883 
L 116.142045 201.634759 
L 117.325682 200.822575 
L 118.509318 208.355047 
L 119.692955 206.457554 
L 120.876591 204.028188 
L 122.060227 244.888973 
L 123.243864 265.89077 
L 124.4275 265.876395 
L 125.611136 265.445147 
L 126.794773 265.897957 
L 127.978409 260.816414 
L 129.162045 265.912332 
L 346.951136 265.912332 
L 348.134773 263.145155 
L 349.318409 201.117261 
L 350.502045 197.868523 
L 351.685682 202.993191 
L 352.869318 199.622267 
L 354.052955 198.58727 
L 355.236591 199.205393 
L 356.420227 198.486646 
L 357.603864 199.083206 
L 358.7875 199.478517 
L 359.971136 199.456955 
L 361.154773 196.589153 
L 362.338409 198.594458 
L 363.522045 198.975394 
L 364.705682 198.278209 
L 365.889318 208.620983 
L 367.072955 199.406642 
L 368.256591 198.220709 
L 370.623864 198.651958 
L 371.8075 199.816328 
L 372.991136 196.395091 
L 374.174773 198.889144 
L 375.358409 198.601645 
L 376.542045 198.75977 
L 377.725682 198.795707 
L 378.909318 199.428205 
L 380.092955 210.482539 
L 381.276591 199.018519 
L 382.460227 199.449767 
L 383.643864 197.473212 
L 384.8275 197.509149 
L 386.011136 198.709457 
L 388.378409 199.076019 
L 389.562045 198.278209 
L 390.745682 198.78852 
L 391.929318 198.659145 
L 393.112955 199.449767 
L 394.296591 203.999438 
L 395.480227 198.580083 
L 396.663864 196.632278 
L 397.8475 198.946644 
L 399.031136 199.29883 
L 400.214773 198.141647 
L 401.398409 198.141647 
L 402.582045 199.054456 
L 403.765682 198.55852 
L 404.949318 196.481341 
L 406.132955 196.53884 
L 406.132955 196.53884 
" clip-path="url(#p043ed90ac2)" style="fill: none; stroke: #2ca02c; stroke-width: 1.5; stroke-linecap: square"/>
   </g>
   <g id="patch_15">
    <path d="M 33.2875 269.388194 
L 33.2875 192.919229 
" style="fill: none; stroke: #000000; stroke-width: 0.8; stroke-linejoin: miter; stroke-linecap: square"/>
   </g>
   <g id="patch_16">
    <path d="M 423.8875 269.388194 
L 423.8875 192.919229 
" style="fill: none; stroke: #000000; stroke-width: 0.8; stroke-linejoin: miter; stroke-linecap: square"/>
   </g>
   <g id="patch_17">
    <path d="M 33.2875 269.388194 
L 423.8875 269.388194 
" style="fill: none; stroke: #000000; stroke-width: 0.8; stroke-linejoin: miter; stroke-linecap: square"/>
   </g>
   <g id="patch_18">
    <path d="M 33.2875 192.919229 
L 423.8875 192.919229 
" style="fill: none; stroke: #000000; stroke-width: 0.8; stroke-linejoin: miter; stroke-linecap: square"/>
   </g>
   <g id="legend_3">
    <g id="patch_19">
     <path d="M 171.678906 264.388194 
L 285.496094 264.388194 
Q 287.496094 264.388194 287.496094 262.388194 
L 287.496094 248.710069 
Q 287.496094 246.710069 285.496094 246.710069 
L 171.678906 246.710069 
Q 169.678906 246.710069 169.678906 248.710069 
L 169.678906 262.388194 
Q 169.678906 264.388194 171.678906 264.388194 
z
" style="fill: #ffffff; opacity: 0.8; stroke: #cccccc; stroke-linejoin: miter"/>
    </g>
    <g id="line2d_36">
     <path d="M 173.678906 254.808507 
L 183.678906 254.808507 
L 193.678906 254.808507 
" style="fill: none; stroke: #2ca02c; stroke-width: 1.5; stroke-linecap: square"/>
    </g>
    <g id="text_12">
     <!-- (POLL%, Core-2) -->
     <g transform="translate(201.678906 258.308507) scale(0.1 -0.1)">
      <defs>
       <path id="DejaVuSans-32" d="M 1228 531 
L 3431 531 
L 3431 0 
L 469 0 
L 469 531 
Q 828 903 1448 1529 
Q 2069 2156 2228 2338 
Q 2531 2678 2651 2914 
Q 2772 3150 2772 3378 
Q 2772 3750 2511 3984 
Q 2250 4219 1831 4219 
Q 1534 4219 1204 4116 
Q 875 4013 500 3803 
L 500 4441 
Q 881 4594 1212 4672 
Q 1544 4750 1819 4750 
Q 2544 4750 2975 4387 
Q 3406 4025 3406 3419 
Q 3406 3131 3298 2873 
Q 3191 2616 2906 2266 
Q 2828 2175 2409 1742 
Q 1991 1309 1228 531 
z
" transform="scale(0.015625)"/>
      </defs>
      <use xlink:href="#DejaVuSans-28"/>
      <use xlink:href="#DejaVuSans-50" x="39.013672"/>
      <use xlink:href="#DejaVuSans-4f" x="99.316406"/>
      <use xlink:href="#DejaVuSans-4c" x="178.027344"/>
      <use xlink:href="#DejaVuSans-4c" x="233.740234"/>
      <use xlink:href="#DejaVuSans-25" x="289.453125"/>
      <use xlink:href="#DejaVuSans-2c" x="384.472656"/>
      <use xlink:href="#DejaVuSans-20" x="416.259766"/>
      <use xlink:href="#DejaVuSans-43" x="448.046875"/>
      <use xlink:href="#DejaVuSans-6f" x="517.871094"/>
      <use xlink:href="#DejaVuSans-72" x="579.052734"/>
      <use xlink:href="#DejaVuSans-65" x="617.916016"/>
      <use xlink:href="#DejaVuSans-2d" x="679.439453"/>
      <use xlink:href="#DejaVuSans-32" x="715.523438"/>
      <use xlink:href="#DejaVuSans-29" x="779.146484"/>
     </g>
    </g>
   </g>
  </g>
  <g id="axes_4">
   <g id="patch_20">
    <path d="M 33.2875 361.150953 
L 423.8875 361.150953 
L 423.8875 284.681988 
L 33.2875 284.681988 
z
" style="fill: #ffffff"/>
   </g>
   <g id="matplotlib.axis_7">
    <g id="xtick_22">
     <g id="line2d_37">
      <g>
       <use xlink:href="#mcdf59e9709" x="49.858409" y="361.150953" style="stroke: #000000; stroke-width: 0.8"/>
      </g>
     </g>
    </g>
    <g id="xtick_23">
     <g id="line2d_38">
      <g>
       <use xlink:href="#mcdf59e9709" x="109.040227" y="361.150953" style="stroke: #000000; stroke-width: 0.8"/>
      </g>
     </g>
    </g>
    <g id="xtick_24">
     <g id="line2d_39">
      <g>
       <use xlink:href="#mcdf59e9709" x="168.222045" y="361.150953" style="stroke: #000000; stroke-width: 0.8"/>
      </g>
     </g>
    </g>
    <g id="xtick_25">
     <g id="line2d_40">
      <g>
       <use xlink:href="#mcdf59e9709" x="227.403864" y="361.150953" style="stroke: #000000; stroke-width: 0.8"/>
      </g>
     </g>
    </g>
    <g id="xtick_26">
     <g id="line2d_41">
      <g>
       <use xlink:href="#mcdf59e9709" x="286.585682" y="361.150953" style="stroke: #000000; stroke-width: 0.8"/>
      </g>
     </g>
    </g>
    <g id="xtick_27">
     <g id="line2d_42">
      <g>
       <use xlink:href="#mcdf59e9709" x="345.7675" y="361.150953" style="stroke: #000000; stroke-width: 0.8"/>
      </g>
     </g>
    </g>
    <g id="xtick_28">
     <g id="line2d_43">
      <g>
       <use xlink:href="#mcdf59e9709" x="404.949318" y="361.150953" style="stroke: #000000; stroke-width: 0.8"/>
      </g>
     </g>
    </g>
   </g>
   <g id="matplotlib.axis_8">
    <g id="ytick_10">
     <g id="line2d_44">
      <g>
       <use xlink:href="#me7ed58b17d" x="33.2875" y="357.675091" style="stroke: #000000; stroke-width: 0.8"/>
      </g>
     </g>
     <g id="text_13">
      <!-- 0 -->
      <g transform="translate(19.925 361.47431) scale(0.1 -0.1)">
       <use xlink:href="#DejaVuSans-30"/>
      </g>
     </g>
    </g>
    <g id="ytick_11">
     <g id="line2d_45">
      <g>
       <use xlink:href="#me7ed58b17d" x="33.2875" y="322.199871" style="stroke: #000000; stroke-width: 0.8"/>
      </g>
     </g>
     <g id="text_14">
      <!-- 50 -->
      <g transform="translate(13.5625 325.99909) scale(0.1 -0.1)">
       <use xlink:href="#DejaVuSans-35"/>
       <use xlink:href="#DejaVuSans-30" x="63.623047"/>
      </g>
     </g>
    </g>
    <g id="ytick_12">
     <g id="line2d_46">
      <g>
       <use xlink:href="#me7ed58b17d" x="33.2875" y="286.724651" style="stroke: #000000; stroke-width: 0.8"/>
      </g>
     </g>
     <g id="text_15">
      <!-- 100 -->
      <g transform="translate(7.2 290.523869) scale(0.1 -0.1)">
       <use xlink:href="#DejaVuSans-31"/>
       <use xlink:href="#DejaVuSans-30" x="63.623047"/>
       <use xlink:href="#DejaVuSans-30" x="127.246094"/>
      </g>
     </g>
    </g>
   </g>
   <g id="line2d_47">
    <path d="M 51.042045 291.222909 
L 52.225682 290.903632 
L 53.409318 297.771634 
L 54.592955 291.166148 
L 55.776591 290.70497 
L 56.960227 292.060124 
L 58.143864 291.953698 
L 59.3275 290.59145 
L 60.511136 288.633218 
L 61.694773 291.237099 
L 62.878409 291.031342 
L 64.062045 291.329334 
L 65.245682 291.010057 
L 66.429318 291.137768 
L 67.612955 295.550886 
L 68.796591 291.386095 
L 69.980227 290.669495 
L 71.163864 290.832681 
L 72.3475 291.535091 
L 73.531136 292.883149 
L 74.714773 292.698678 
L 75.898409 291.932413 
L 77.082045 290.69078 
L 78.265682 288.15785 
L 79.449318 291.151958 
L 80.632955 291.130673 
L 81.816591 296.842184 
L 83.000227 290.896537 
L 84.183864 290.740446 
L 85.3675 291.272574 
L 87.734773 291.116483 
L 88.918409 290.70497 
L 90.102045 290.56307 
L 91.285682 291.804702 
L 92.469318 290.740446 
L 93.652955 291.315144 
L 94.836591 291.315144 
L 96.020227 293.074715 
L 97.203864 290.626925 
L 98.3875 290.825586 
L 99.571136 292.812199 
L 100.754773 291.194528 
L 101.938409 290.272173 
L 103.122045 290.917822 
L 104.305682 290.811396 
L 105.489318 291.102293 
L 106.672955 290.804301 
L 107.856591 290.371503 
L 109.040227 291.038438 
L 110.223864 303.213533 
L 111.4075 301.574578 
L 112.591136 294.74205 
L 113.774773 290.073512 
L 114.958409 296.494526 
L 116.142045 292.705773 
L 117.325682 295.820497 
L 118.509318 303.050347 
L 119.692955 303.674711 
L 120.876591 301.297871 
L 122.060227 304.625447 
L 123.243864 311.202553 
L 124.4275 327.485679 
L 125.611136 302.241512 
L 126.794773 299.736961 
L 127.978409 325.789963 
L 129.162045 357.675091 
L 133.896591 357.653806 
L 135.080227 357.341624 
L 136.263864 357.667996 
L 155.202045 357.675091 
L 233.322045 357.675091 
L 234.505682 322.88809 
L 235.689318 297.012465 
L 236.872955 300.425181 
L 238.056591 335.531459 
L 239.240227 357.675091 
L 406.132955 357.675091 
L 406.132955 357.675091 
" clip-path="url(#pd93117a0da)" style="fill: none; stroke: #d62728; stroke-width: 1.5; stroke-linecap: square"/>
   </g>
   <g id="patch_21">
    <path d="M 33.2875 361.150953 
L 33.2875 284.681988 
" style="fill: none; stroke: #000000; stroke-width: 0.8; stroke-linejoin: miter; stroke-linecap: square"/>
   </g>
   <g id="patch_22">
    <path d="M 423.8875 361.150953 
L 423.8875 284.681988 
" style="fill: none; stroke: #000000; stroke-width: 0.8; stroke-linejoin: miter; stroke-linecap: square"/>
   </g>
   <g id="patch_23">
    <path d="M 33.2875 361.150953 
L 423.8875 361.150953 
" style="fill: none; stroke: #000000; stroke-width: 0.8; stroke-linejoin: miter; stroke-linecap: square"/>
   </g>
   <g id="patch_24">
    <path d="M 33.2875 284.681988 
L 423.8875 284.681988 
" style="fill: none; stroke: #000000; stroke-width: 0.8; stroke-linejoin: miter; stroke-linecap: square"/>
   </g>
   <g id="legend_4">
    <g id="patch_25">
     <path d="M 303.070313 307.360113 
L 416.8875 307.360113 
Q 418.8875 307.360113 418.8875 305.360113 
L 418.8875 291.681988 
Q 418.8875 289.681988 416.8875 289.681988 
L 303.070313 289.681988 
Q 301.070313 289.681988 301.070313 291.681988 
L 301.070313 305.360113 
Q 301.070313 307.360113 303.070313 307.360113 
z
" style="fill: #ffffff; opacity: 0.8; stroke: #cccccc; stroke-linejoin: miter"/>
    </g>
    <g id="line2d_48">
     <path d="M 305.070313 297.780425 
L 315.070313 297.780425 
L 325.070313 297.780425 
" style="fill: none; stroke: #d62728; stroke-width: 1.5; stroke-linecap: square"/>
    </g>
    <g id="text_16">
     <!-- (POLL%, Core-3) -->
     <g transform="translate(333.070313 301.280425) scale(0.1 -0.1)">
      <defs>
       <path id="DejaVuSans-33" d="M 2597 2516 
Q 3050 2419 3304 2112 
Q 3559 1806 3559 1356 
Q 3559 666 3084 287 
Q 2609 -91 1734 -91 
Q 1441 -91 1130 -33 
Q 819 25 488 141 
L 488 750 
Q 750 597 1062 519 
Q 1375 441 1716 441 
Q 2309 441 2620 675 
Q 2931 909 2931 1356 
Q 2931 1769 2642 2001 
Q 2353 2234 1838 2234 
L 1294 2234 
L 1294 2753 
L 1863 2753 
Q 2328 2753 2575 2939 
Q 2822 3125 2822 3475 
Q 2822 3834 2567 4026 
Q 2313 4219 1838 4219 
Q 1578 4219 1281 4162 
Q 984 4106 628 3988 
L 628 4550 
Q 988 4650 1302 4700 
Q 1616 4750 1894 4750 
Q 2613 4750 3031 4423 
Q 3450 4097 3450 3541 
Q 3450 3153 3228 2886 
Q 3006 2619 2597 2516 
z
" transform="scale(0.015625)"/>
      </defs>
      <use xlink:href="#DejaVuSans-28"/>
      <use xlink:href="#DejaVuSans-50" x="39.013672"/>
      <use xlink:href="#DejaVuSans-4f" x="99.316406"/>
      <use xlink:href="#DejaVuSans-4c" x="178.027344"/>
      <use xlink:href="#DejaVuSans-4c" x="233.740234"/>
      <use xlink:href="#DejaVuSans-25" x="289.453125"/>
      <use xlink:href="#DejaVuSans-2c" x="384.472656"/>
      <use xlink:href="#DejaVuSans-20" x="416.259766"/>
      <use xlink:href="#DejaVuSans-43" x="448.046875"/>
      <use xlink:href="#DejaVuSans-6f" x="517.871094"/>
      <use xlink:href="#DejaVuSans-72" x="579.052734"/>
      <use xlink:href="#DejaVuSans-65" x="617.916016"/>
      <use xlink:href="#DejaVuSans-2d" x="679.439453"/>
      <use xlink:href="#DejaVuSans-33" x="715.523438"/>
      <use xlink:href="#DejaVuSans-29" x="779.146484"/>
     </g>
    </g>
   </g>
  </g>
  <g id="axes_5">
   <g id="patch_26">
    <path d="M 33.2875 452.913712 
L 423.8875 452.913712 
L 423.8875 376.444746 
L 33.2875 376.444746 
z
" style="fill: #ffffff"/>
   </g>
   <g id="matplotlib.axis_9">
    <g id="xtick_29">
     <g id="line2d_49">
      <g>
       <use xlink:href="#mcdf59e9709" x="49.858409" y="452.913712" style="stroke: #000000; stroke-width: 0.8"/>
      </g>
     </g>
     <g id="text_17">
      <!-- 0 -->
      <g transform="translate(46.677159 467.512149) scale(0.1 -0.1)">
       <use xlink:href="#DejaVuSans-30"/>
      </g>
     </g>
    </g>
    <g id="xtick_30">
     <g id="line2d_50">
      <g>
       <use xlink:href="#mcdf59e9709" x="109.040227" y="452.913712" style="stroke: #000000; stroke-width: 0.8"/>
      </g>
     </g>
     <g id="text_18">
      <!-- 50 -->
      <g transform="translate(102.677727 467.512149) scale(0.1 -0.1)">
       <use xlink:href="#DejaVuSans-35"/>
       <use xlink:href="#DejaVuSans-30" x="63.623047"/>
      </g>
     </g>
    </g>
    <g id="xtick_31">
     <g id="line2d_51">
      <g>
       <use xlink:href="#mcdf59e9709" x="168.222045" y="452.913712" style="stroke: #000000; stroke-width: 0.8"/>
      </g>
     </g>
     <g id="text_19">
      <!-- 100 -->
      <g transform="translate(158.678295 467.512149) scale(0.1 -0.1)">
       <use xlink:href="#DejaVuSans-31"/>
       <use xlink:href="#DejaVuSans-30" x="63.623047"/>
       <use xlink:href="#DejaVuSans-30" x="127.246094"/>
      </g>
     </g>
    </g>
    <g id="xtick_32">
     <g id="line2d_52">
      <g>
       <use xlink:href="#mcdf59e9709" x="227.403864" y="452.913712" style="stroke: #000000; stroke-width: 0.8"/>
      </g>
     </g>
     <g id="text_20">
      <!-- 150 -->
      <g transform="translate(217.860114 467.512149) scale(0.1 -0.1)">
       <use xlink:href="#DejaVuSans-31"/>
       <use xlink:href="#DejaVuSans-35" x="63.623047"/>
       <use xlink:href="#DejaVuSans-30" x="127.246094"/>
      </g>
     </g>
    </g>
    <g id="xtick_33">
     <g id="line2d_53">
      <g>
       <use xlink:href="#mcdf59e9709" x="286.585682" y="452.913712" style="stroke: #000000; stroke-width: 0.8"/>
      </g>
     </g>
     <g id="text_21">
      <!-- 200 -->
      <g transform="translate(277.041932 467.512149) scale(0.1 -0.1)">
       <use xlink:href="#DejaVuSans-32"/>
       <use xlink:href="#DejaVuSans-30" x="63.623047"/>
       <use xlink:href="#DejaVuSans-30" x="127.246094"/>
      </g>
     </g>
    </g>
    <g id="xtick_34">
     <g id="line2d_54">
      <g>
       <use xlink:href="#mcdf59e9709" x="345.7675" y="452.913712" style="stroke: #000000; stroke-width: 0.8"/>
      </g>
     </g>
     <g id="text_22">
      <!-- 250 -->
      <g transform="translate(336.22375 467.512149) scale(0.1 -0.1)">
       <use xlink:href="#DejaVuSans-32"/>
       <use xlink:href="#DejaVuSans-35" x="63.623047"/>
       <use xlink:href="#DejaVuSans-30" x="127.246094"/>
      </g>
     </g>
    </g>
    <g id="xtick_35">
     <g id="line2d_55">
      <g>
       <use xlink:href="#mcdf59e9709" x="404.949318" y="452.913712" style="stroke: #000000; stroke-width: 0.8"/>
      </g>
     </g>
     <g id="text_23">
      <!-- 300 -->
      <g transform="translate(395.405568 467.512149) scale(0.1 -0.1)">
       <use xlink:href="#DejaVuSans-33"/>
       <use xlink:href="#DejaVuSans-30" x="63.623047"/>
       <use xlink:href="#DejaVuSans-30" x="127.246094"/>
      </g>
     </g>
    </g>
    <g id="text_24">
     <!-- Clk -->
     <g transform="translate(220.811719 481.190274) scale(0.1 -0.1)">
      <defs>
       <path id="DejaVuSans-6c" d="M 603 4863 
L 1178 4863 
L 1178 0 
L 603 0 
L 603 4863 
z
" transform="scale(0.015625)"/>
       <path id="DejaVuSans-6b" d="M 581 4863 
L 1159 4863 
L 1159 1991 
L 2875 3500 
L 3609 3500 
L 1753 1863 
L 3688 0 
L 2938 0 
L 1159 1709 
L 1159 0 
L 581 0 
L 581 4863 
z
" transform="scale(0.015625)"/>
      </defs>
      <use xlink:href="#DejaVuSans-43"/>
      <use xlink:href="#DejaVuSans-6c" x="69.824219"/>
      <use xlink:href="#DejaVuSans-6b" x="97.607422"/>
     </g>
    </g>
   </g>
   <g id="matplotlib.axis_10">
    <g id="ytick_13">
     <g id="line2d_56">
      <g>
       <use xlink:href="#me7ed58b17d" x="33.2875" y="449.43785" style="stroke: #000000; stroke-width: 0.8"/>
      </g>
     </g>
     <g id="text_25">
      <!-- 0 -->
      <g transform="translate(19.925 453.237068) scale(0.1 -0.1)">
       <use xlink:href="#DejaVuSans-30"/>
      </g>
     </g>
    </g>
    <g id="ytick_14">
     <g id="line2d_57">
      <g>
       <use xlink:href="#me7ed58b17d" x="33.2875" y="413.556131" style="stroke: #000000; stroke-width: 0.8"/>
      </g>
     </g>
     <g id="text_26">
      <!-- 50 -->
      <g transform="translate(13.5625 417.35535) scale(0.1 -0.1)">
       <use xlink:href="#DejaVuSans-35"/>
       <use xlink:href="#DejaVuSans-30" x="63.623047"/>
      </g>
     </g>
    </g>
    <g id="ytick_15">
     <g id="line2d_58">
      <g>
       <use xlink:href="#me7ed58b17d" x="33.2875" y="377.674413" style="stroke: #000000; stroke-width: 0.8"/>
      </g>
     </g>
     <g id="text_27">
      <!-- 100 -->
      <g transform="translate(7.2 381.473631) scale(0.1 -0.1)">
       <use xlink:href="#DejaVuSans-31"/>
       <use xlink:href="#DejaVuSans-30" x="63.623047"/>
       <use xlink:href="#DejaVuSans-30" x="127.246094"/>
      </g>
     </g>
    </g>
   </g>
   <g id="line2d_59">
    <path d="M 51.042045 382.138098 
L 52.225682 382.303154 
L 53.409318 386.838604 
L 54.592955 382.425152 
L 55.776591 382.073511 
L 56.960227 383.609249 
L 60.511136 380.243544 
L 61.694773 382.295978 
L 62.878409 382.188333 
L 64.062045 382.217038 
L 65.245682 381.980219 
L 66.429318 382.145275 
L 67.612955 386.486963 
L 68.796591 382.051982 
L 71.163864 382.09504 
L 72.3475 382.511268 
L 73.531136 383.078199 
L 74.714773 383.472898 
L 77.082045 382.145275 
L 78.265682 379.920608 
L 79.449318 382.245744 
L 80.632955 382.245744 
L 81.816591 386.745311 
L 83.000227 382.123746 
L 84.183864 382.181157 
L 85.3675 382.087864 
L 86.551136 382.38927 
L 91.285682 382.03763 
L 92.469318 382.181157 
L 93.652955 382.683501 
L 94.836591 382.310331 
L 96.020227 385.015812 
L 97.203864 381.319995 
L 98.3875 382.217038 
L 99.571136 384.104417 
L 100.754773 382.783969 
L 101.938409 382.17398 
L 107.856591 382.016101 
L 109.040227 382.719382 
L 110.223864 400.961648 
L 111.4075 405.396628 
L 113.774773 398.772863 
L 114.958409 402.303624 
L 116.142045 400.344482 
L 117.325682 409.939254 
L 118.509318 421.256348 
L 119.692955 420.940589 
L 120.876591 419.684729 
L 122.060227 430.765003 
L 123.243864 437.446179 
L 124.4275 441.795044 
L 125.611136 435.300453 
L 126.794773 434.783756 
L 127.978409 440.101426 
L 129.162045 449.43785 
L 233.322045 449.43785 
L 234.505682 440.639652 
L 235.689318 434.102003 
L 236.872955 434.963164 
L 238.056591 443.840302 
L 239.240227 449.43785 
L 335.114773 449.43785 
L 337.482045 434.582818 
L 338.665682 435.235865 
L 339.849318 434.898577 
L 341.032955 435.049281 
L 343.400227 434.869872 
L 344.583864 418.565219 
L 345.7675 417.051011 
L 346.951136 416.735251 
L 348.134773 415.242572 
L 349.318409 399.196267 
L 350.502045 399.081446 
L 351.685682 403.365723 
L 352.869318 399.79908 
L 354.052955 399.418734 
L 355.236591 399.325442 
L 356.420227 399.117328 
L 357.603864 399.282384 
L 358.7875 399.590966 
L 359.971136 399.239325 
L 361.154773 397.789704 
L 362.338409 398.909214 
L 363.522045 399.038388 
L 364.705682 398.952272 
L 365.889318 403.437487 
L 367.072955 399.203444 
L 368.256591 398.744158 
L 370.623864 399.153209 
L 371.8075 399.253678 
L 372.991136 397.574414 
L 374.174773 398.966624 
L 375.358409 399.052741 
L 378.909318 398.909214 
L 380.092955 403.710188 
L 381.276591 399.282384 
L 382.460227 399.576614 
L 383.643864 398.471457 
L 384.8275 398.24899 
L 386.011136 398.902037 
L 387.194773 398.988153 
L 388.378409 399.354147 
L 389.562045 399.045564 
L 390.745682 399.088622 
L 391.929318 399.318265 
L 393.112955 399.354147 
L 394.296591 403.473368 
L 395.480227 398.729805 
L 396.663864 397.595943 
L 397.8475 399.13168 
L 399.031136 399.526379 
L 400.214773 398.887685 
L 403.765682 399.024035 
L 404.949318 397.215597 
L 406.132955 397.373476 
L 406.132955 397.373476 
" clip-path="url(#p59e2db0b24)" style="fill: none; stroke: #9467bd; stroke-width: 1.5; stroke-linecap: square"/>
   </g>
   <g id="patch_27">
    <path d="M 33.2875 452.913712 
L 33.2875 376.444746 
" style="fill: none; stroke: #000000; stroke-width: 0.8; stroke-linejoin: miter; stroke-linecap: square"/>
   </g>
   <g id="patch_28">
    <path d="M 423.8875 452.913712 
L 423.8875 376.444746 
" style="fill: none; stroke: #000000; stroke-width: 0.8; stroke-linejoin: miter; stroke-linecap: square"/>
   </g>
   <g id="patch_29">
    <path d="M 33.2875 452.913712 
L 423.8875 452.913712 
" style="fill: none; stroke: #000000; stroke-width: 0.8; stroke-linejoin: miter; stroke-linecap: square"/>
   </g>
   <g id="patch_30">
    <path d="M 33.2875 376.444746 
L 423.8875 376.444746 
" style="fill: none; stroke: #000000; stroke-width: 0.8; stroke-linejoin: miter; stroke-linecap: square"/>
   </g>
   <g id="legend_5">
    <g id="patch_31">
     <path d="M 170.364844 399.122871 
L 286.810156 399.122871 
Q 288.810156 399.122871 288.810156 397.122871 
L 288.810156 383.444746 
Q 288.810156 381.444746 286.810156 381.444746 
L 170.364844 381.444746 
Q 168.364844 381.444746 168.364844 383.444746 
L 168.364844 397.122871 
Q 168.364844 399.122871 170.364844 399.122871 
z
" style="fill: #ffffff; opacity: 0.8; stroke: #cccccc; stroke-linejoin: miter"/>
    </g>
    <g id="line2d_60">
     <path d="M 172.364844 389.543184 
L 182.364844 389.543184 
L 192.364844 389.543184 
" style="fill: none; stroke: #9467bd; stroke-width: 1.5; stroke-linecap: square"/>
    </g>
    <g id="text_28">
     <!-- (POLL%, Overall) -->
     <g transform="translate(200.364844 393.043184) scale(0.1 -0.1)">
      <defs>
       <path id="DejaVuSans-76" d="M 191 3500 
L 800 3500 
L 1894 563 
L 2988 3500 
L 3597 3500 
L 2284 0 
L 1503 0 
L 191 3500 
z
" transform="scale(0.015625)"/>
       <path id="DejaVuSans-61" d="M 2194 1759 
Q 1497 1759 1228 1600 
Q 959 1441 959 1056 
Q 959 750 1161 570 
Q 1363 391 1709 391 
Q 2188 391 2477 730 
Q 2766 1069 2766 1631 
L 2766 1759 
L 2194 1759 
z
M 3341 1997 
L 3341 0 
L 2766 0 
L 2766 531 
Q 2569 213 2275 61 
Q 1981 -91 1556 -91 
Q 1019 -91 701 211 
Q 384 513 384 1019 
Q 384 1609 779 1909 
Q 1175 2209 1959 2209 
L 2766 2209 
L 2766 2266 
Q 2766 2663 2505 2880 
Q 2244 3097 1772 3097 
Q 1472 3097 1187 3025 
Q 903 2953 641 2809 
L 641 3341 
Q 956 3463 1253 3523 
Q 1550 3584 1831 3584 
Q 2591 3584 2966 3190 
Q 3341 2797 3341 1997 
z
" transform="scale(0.015625)"/>
      </defs>
      <use xlink:href="#DejaVuSans-28"/>
      <use xlink:href="#DejaVuSans-50" x="39.013672"/>
      <use xlink:href="#DejaVuSans-4f" x="99.316406"/>
      <use xlink:href="#DejaVuSans-4c" x="178.027344"/>
      <use xlink:href="#DejaVuSans-4c" x="233.740234"/>
      <use xlink:href="#DejaVuSans-25" x="289.453125"/>
      <use xlink:href="#DejaVuSans-2c" x="384.472656"/>
      <use xlink:href="#DejaVuSans-20" x="416.259766"/>
      <use xlink:href="#DejaVuSans-4f" x="448.046875"/>
      <use xlink:href="#DejaVuSans-76" x="526.757812"/>
      <use xlink:href="#DejaVuSans-65" x="585.9375"/>
      <use xlink:href="#DejaVuSans-72" x="647.460938"/>
      <use xlink:href="#DejaVuSans-61" x="688.574219"/>
      <use xlink:href="#DejaVuSans-6c" x="749.853516"/>
      <use xlink:href="#DejaVuSans-6c" x="777.636719"/>
      <use xlink:href="#DejaVuSans-29" x="805.419922"/>
     </g>
    </g>
   </g>
  </g>
 </g>
 <defs>
  <clipPath id="p31e2d7832d">
   <rect x="33.2875" y="9.393712" width="390.6" height="76.468966"/>
  </clipPath>
  <clipPath id="paf9149d4d3">
   <rect x="33.2875" y="101.15647" width="390.6" height="76.468966"/>
  </clipPath>
  <clipPath id="p043ed90ac2">
   <rect x="33.2875" y="192.919229" width="390.6" height="76.468966"/>
  </clipPath>
  <clipPath id="pd93117a0da">
   <rect x="33.2875" y="284.681988" width="390.6" height="76.468966"/>
  </clipPath>
  <clipPath id="p59e2db0b24">
   <rect x="33.2875" y="376.444746" width="390.6" height="76.468966"/>
  </clipPath>
 </defs>
</svg>
