<?xml version="1.0" encoding="utf-8" standalone="no"?>
<!DOCTYPE svg PUBLIC "-//W3C//DTD SVG 1.1//EN"
  "http://www.w3.org/Graphics/SVG/1.1/DTD/svg11.dtd">
<svg xmlns:xlink="http://www.w3.org/1999/xlink" width="442.645312pt" height="488.599607pt" viewBox="0 0 442.645312 488.599607" xmlns="http://www.w3.org/2000/svg" version="1.1">
 <metadata>
  <rdf:RDF xmlns:dc="http://purl.org/dc/elements/1.1/" xmlns:cc="http://creativecommons.org/ns#" xmlns:rdf="http://www.w3.org/1999/02/22-rdf-syntax-ns#">
   <cc:Work>
    <dc:type rdf:resource="http://purl.org/dc/dcmitype/StillImage"/>
    <dc:date>2024-02-01T16:55:29.076465</dc:date>
    <dc:format>image/svg+xml</dc:format>
    <dc:creator>
     <cc:Agent>
      <dc:title>Matplotlib v3.8.1, https://matplotlib.org/</dc:title>
     </cc:Agent>
    </dc:creator>
   </cc:Work>
  </rdf:RDF>
 </metadata>
 <defs>
  <style type="text/css">*{stroke-linejoin: round; stroke-linecap: butt}</style>
 </defs>
 <g id="figure_1">
  <g id="patch_1">
   <path d="M 0 488.599607 
L 442.645312 488.599607 
L 442.645312 0 
L 0 0 
z
" style="fill: #ffffff"/>
  </g>
  <g id="axes_1">
   <g id="patch_2">
    <path d="M 44.845313 83.992322 
L 435.445312 83.992322 
L 435.445312 7.523357 
L 44.845313 7.523357 
z
" style="fill: #ffffff"/>
   </g>
   <g id="matplotlib.axis_1">
    <g id="xtick_1">
     <g id="line2d_1">
      <defs>
       <path id="ma5cb0edc80" d="M 0 0 
L 0 3.5 
" style="stroke: #000000; stroke-width: 0.8"/>
      </defs>
      <g>
       <use xlink:href="#ma5cb0edc80" x="61.416222" y="83.992322" style="stroke: #000000; stroke-width: 0.8"/>
      </g>
     </g>
    </g>
    <g id="xtick_2">
     <g id="line2d_2">
      <g>
       <use xlink:href="#ma5cb0edc80" x="120.59804" y="83.992322" style="stroke: #000000; stroke-width: 0.8"/>
      </g>
     </g>
    </g>
    <g id="xtick_3">
     <g id="line2d_3">
      <g>
       <use xlink:href="#ma5cb0edc80" x="179.779858" y="83.992322" style="stroke: #000000; stroke-width: 0.8"/>
      </g>
     </g>
    </g>
    <g id="xtick_4">
     <g id="line2d_4">
      <g>
       <use xlink:href="#ma5cb0edc80" x="238.961676" y="83.992322" style="stroke: #000000; stroke-width: 0.8"/>
      </g>
     </g>
    </g>
    <g id="xtick_5">
     <g id="line2d_5">
      <g>
       <use xlink:href="#ma5cb0edc80" x="298.143494" y="83.992322" style="stroke: #000000; stroke-width: 0.8"/>
      </g>
     </g>
    </g>
    <g id="xtick_6">
     <g id="line2d_6">
      <g>
       <use xlink:href="#ma5cb0edc80" x="357.325312" y="83.992322" style="stroke: #000000; stroke-width: 0.8"/>
      </g>
     </g>
    </g>
    <g id="xtick_7">
     <g id="line2d_7">
      <g>
       <use xlink:href="#ma5cb0edc80" x="416.507131" y="83.992322" style="stroke: #000000; stroke-width: 0.8"/>
      </g>
     </g>
    </g>
   </g>
   <g id="matplotlib.axis_2">
    <g id="ytick_1">
     <g id="line2d_8">
      <defs>
       <path id="me7f6f4fc67" d="M 0 0 
L -3.5 0 
" style="stroke: #000000; stroke-width: 0.8"/>
      </defs>
      <g>
       <use xlink:href="#me7f6f4fc67" x="44.845313" y="80.51646" style="stroke: #000000; stroke-width: 0.8"/>
      </g>
     </g>
     <g id="text_1">
      <!-- −0.05 -->
      <g transform="translate(7.2 84.315679) scale(0.1 -0.1)">
       <defs>
        <path id="DejaVuSans-2212" d="M 678 2272 
L 4684 2272 
L 4684 1741 
L 678 1741 
L 678 2272 
z
" transform="scale(0.015625)"/>
        <path id="DejaVuSans-30" d="M 2034 4250 
Q 1547 4250 1301 3770 
Q 1056 3291 1056 2328 
Q 1056 1369 1301 889 
Q 1547 409 2034 409 
Q 2525 409 2770 889 
Q 3016 1369 3016 2328 
Q 3016 3291 2770 3770 
Q 2525 4250 2034 4250 
z
M 2034 4750 
Q 2819 4750 3233 4129 
Q 3647 3509 3647 2328 
Q 3647 1150 3233 529 
Q 2819 -91 2034 -91 
Q 1250 -91 836 529 
Q 422 1150 422 2328 
Q 422 3509 836 4129 
Q 1250 4750 2034 4750 
z
" transform="scale(0.015625)"/>
        <path id="DejaVuSans-2e" d="M 684 794 
L 1344 794 
L 1344 0 
L 684 0 
L 684 794 
z
" transform="scale(0.015625)"/>
        <path id="DejaVuSans-35" d="M 691 4666 
L 3169 4666 
L 3169 4134 
L 1269 4134 
L 1269 2991 
Q 1406 3038 1543 3061 
Q 1681 3084 1819 3084 
Q 2600 3084 3056 2656 
Q 3513 2228 3513 1497 
Q 3513 744 3044 326 
Q 2575 -91 1722 -91 
Q 1428 -91 1123 -41 
Q 819 9 494 109 
L 494 744 
Q 775 591 1075 516 
Q 1375 441 1709 441 
Q 2250 441 2565 725 
Q 2881 1009 2881 1497 
Q 2881 1984 2565 2268 
Q 2250 2553 1709 2553 
Q 1456 2553 1204 2497 
Q 953 2441 691 2322 
L 691 4666 
z
" transform="scale(0.015625)"/>
       </defs>
       <use xlink:href="#DejaVuSans-2212"/>
       <use xlink:href="#DejaVuSans-30" x="83.789062"/>
       <use xlink:href="#DejaVuSans-2e" x="147.412109"/>
       <use xlink:href="#DejaVuSans-30" x="179.199219"/>
       <use xlink:href="#DejaVuSans-35" x="242.822266"/>
      </g>
     </g>
    </g>
    <g id="ytick_2">
     <g id="line2d_9">
      <g>
       <use xlink:href="#me7f6f4fc67" x="44.845313" y="45.757839" style="stroke: #000000; stroke-width: 0.8"/>
      </g>
     </g>
     <g id="text_2">
      <!-- 0.00 -->
      <g transform="translate(15.579688 49.557058) scale(0.1 -0.1)">
       <use xlink:href="#DejaVuSans-30"/>
       <use xlink:href="#DejaVuSans-2e" x="63.623047"/>
       <use xlink:href="#DejaVuSans-30" x="95.410156"/>
       <use xlink:href="#DejaVuSans-30" x="159.033203"/>
      </g>
     </g>
    </g>
    <g id="ytick_3">
     <g id="line2d_10">
      <g>
       <use xlink:href="#me7f6f4fc67" x="44.845313" y="10.999219" style="stroke: #000000; stroke-width: 0.8"/>
      </g>
     </g>
     <g id="text_3">
      <!-- 0.05 -->
      <g transform="translate(15.579688 14.798437) scale(0.1 -0.1)">
       <use xlink:href="#DejaVuSans-30"/>
       <use xlink:href="#DejaVuSans-2e" x="63.623047"/>
       <use xlink:href="#DejaVuSans-30" x="95.410156"/>
       <use xlink:href="#DejaVuSans-35" x="159.033203"/>
      </g>
     </g>
    </g>
   </g>
   <g id="line2d_11">
    <path d="M 62.599858 45.757839 
L 417.690767 45.757839 
L 417.690767 45.757839 
" clip-path="url(#p5484651be0)" style="fill: none; stroke: #1f77b4; stroke-width: 1.5; stroke-linecap: square"/>
   </g>
   <g id="patch_3">
    <path d="M 44.845313 83.992322 
L 44.845313 7.523357 
" style="fill: none; stroke: #000000; stroke-width: 0.8; stroke-linejoin: miter; stroke-linecap: square"/>
   </g>
   <g id="patch_4">
    <path d="M 435.445312 83.992322 
L 435.445312 7.523357 
" style="fill: none; stroke: #000000; stroke-width: 0.8; stroke-linejoin: miter; stroke-linecap: square"/>
   </g>
   <g id="patch_5">
    <path d="M 44.845313 83.992322 
L 435.445312 83.992322 
" style="fill: none; stroke: #000000; stroke-width: 0.8; stroke-linejoin: miter; stroke-linecap: square"/>
   </g>
   <g id="patch_6">
    <path d="M 44.845313 7.523357 
L 435.445312 7.523357 
" style="fill: none; stroke: #000000; stroke-width: 0.8; stroke-linejoin: miter; stroke-linecap: square"/>
   </g>
   <g id="legend_1">
    <g id="patch_7">
     <path d="M 303.7 30.201482 
L 428.445313 30.201482 
Q 430.445313 30.201482 430.445313 28.201482 
L 430.445313 14.523357 
Q 430.445313 12.523357 428.445313 12.523357 
L 303.7 12.523357 
Q 301.7 12.523357 301.7 14.523357 
L 301.7 28.201482 
Q 301.7 30.201482 303.7 30.201482 
z
" style="fill: #ffffff; opacity: 0.8; stroke: #cccccc; stroke-linejoin: miter"/>
    </g>
    <g id="line2d_12">
     <path d="M 305.7 20.621794 
L 315.7 20.621794 
L 325.7 20.621794 
" style="fill: none; stroke: #1f77b4; stroke-width: 1.5; stroke-linecap: square"/>
    </g>
    <g id="text_4">
     <!-- (C3ACPI%, Core-0) -->
     <g transform="translate(333.7 24.121794) scale(0.1 -0.1)">
      <defs>
       <path id="DejaVuSans-28" d="M 1984 4856 
Q 1566 4138 1362 3434 
Q 1159 2731 1159 2009 
Q 1159 1288 1364 580 
Q 1569 -128 1984 -844 
L 1484 -844 
Q 1016 -109 783 600 
Q 550 1309 550 2009 
Q 550 2706 781 3412 
Q 1013 4119 1484 4856 
L 1984 4856 
z
" transform="scale(0.015625)"/>
       <path id="DejaVuSans-43" d="M 4122 4306 
L 4122 3641 
Q 3803 3938 3442 4084 
Q 3081 4231 2675 4231 
Q 1875 4231 1450 3742 
Q 1025 3253 1025 2328 
Q 1025 1406 1450 917 
Q 1875 428 2675 428 
Q 3081 428 3442 575 
Q 3803 722 4122 1019 
L 4122 359 
Q 3791 134 3420 21 
Q 3050 -91 2638 -91 
Q 1578 -91 968 557 
Q 359 1206 359 2328 
Q 359 3453 968 4101 
Q 1578 4750 2638 4750 
Q 3056 4750 3426 4639 
Q 3797 4528 4122 4306 
z
" transform="scale(0.015625)"/>
       <path id="DejaVuSans-33" d="M 2597 2516 
Q 3050 2419 3304 2112 
Q 3559 1806 3559 1356 
Q 3559 666 3084 287 
Q 2609 -91 1734 -91 
Q 1441 -91 1130 -33 
Q 819 25 488 141 
L 488 750 
Q 750 597 1062 519 
Q 1375 441 1716 441 
Q 2309 441 2620 675 
Q 2931 909 2931 1356 
Q 2931 1769 2642 2001 
Q 2353 2234 1838 2234 
L 1294 2234 
L 1294 2753 
L 1863 2753 
Q 2328 2753 2575 2939 
Q 2822 3125 2822 3475 
Q 2822 3834 2567 4026 
Q 2313 4219 1838 4219 
Q 1578 4219 1281 4162 
Q 984 4106 628 3988 
L 628 4550 
Q 988 4650 1302 4700 
Q 1616 4750 1894 4750 
Q 2613 4750 3031 4423 
Q 3450 4097 3450 3541 
Q 3450 3153 3228 2886 
Q 3006 2619 2597 2516 
z
" transform="scale(0.015625)"/>
       <path id="DejaVuSans-41" d="M 2188 4044 
L 1331 1722 
L 3047 1722 
L 2188 4044 
z
M 1831 4666 
L 2547 4666 
L 4325 0 
L 3669 0 
L 3244 1197 
L 1141 1197 
L 716 0 
L 50 0 
L 1831 4666 
z
" transform="scale(0.015625)"/>
       <path id="DejaVuSans-50" d="M 1259 4147 
L 1259 2394 
L 2053 2394 
Q 2494 2394 2734 2622 
Q 2975 2850 2975 3272 
Q 2975 3691 2734 3919 
Q 2494 4147 2053 4147 
L 1259 4147 
z
M 628 4666 
L 2053 4666 
Q 2838 4666 3239 4311 
Q 3641 3956 3641 3272 
Q 3641 2581 3239 2228 
Q 2838 1875 2053 1875 
L 1259 1875 
L 1259 0 
L 628 0 
L 628 4666 
z
" transform="scale(0.015625)"/>
       <path id="DejaVuSans-49" d="M 628 4666 
L 1259 4666 
L 1259 0 
L 628 0 
L 628 4666 
z
" transform="scale(0.015625)"/>
       <path id="DejaVuSans-25" d="M 4653 2053 
Q 4381 2053 4226 1822 
Q 4072 1591 4072 1178 
Q 4072 772 4226 539 
Q 4381 306 4653 306 
Q 4919 306 5073 539 
Q 5228 772 5228 1178 
Q 5228 1588 5073 1820 
Q 4919 2053 4653 2053 
z
M 4653 2450 
Q 5147 2450 5437 2106 
Q 5728 1763 5728 1178 
Q 5728 594 5436 251 
Q 5144 -91 4653 -91 
Q 4153 -91 3862 251 
Q 3572 594 3572 1178 
Q 3572 1766 3864 2108 
Q 4156 2450 4653 2450 
z
M 1428 4353 
Q 1159 4353 1004 4120 
Q 850 3888 850 3481 
Q 850 3069 1003 2837 
Q 1156 2606 1428 2606 
Q 1700 2606 1854 2837 
Q 2009 3069 2009 3481 
Q 2009 3884 1853 4118 
Q 1697 4353 1428 4353 
z
M 4250 4750 
L 4750 4750 
L 1831 -91 
L 1331 -91 
L 4250 4750 
z
M 1428 4750 
Q 1922 4750 2215 4408 
Q 2509 4066 2509 3481 
Q 2509 2891 2217 2550 
Q 1925 2209 1428 2209 
Q 931 2209 642 2551 
Q 353 2894 353 3481 
Q 353 4063 643 4406 
Q 934 4750 1428 4750 
z
" transform="scale(0.015625)"/>
       <path id="DejaVuSans-2c" d="M 750 794 
L 1409 794 
L 1409 256 
L 897 -744 
L 494 -744 
L 750 256 
L 750 794 
z
" transform="scale(0.015625)"/>
       <path id="DejaVuSans-20" transform="scale(0.015625)"/>
       <path id="DejaVuSans-6f" d="M 1959 3097 
Q 1497 3097 1228 2736 
Q 959 2375 959 1747 
Q 959 1119 1226 758 
Q 1494 397 1959 397 
Q 2419 397 2687 759 
Q 2956 1122 2956 1747 
Q 2956 2369 2687 2733 
Q 2419 3097 1959 3097 
z
M 1959 3584 
Q 2709 3584 3137 3096 
Q 3566 2609 3566 1747 
Q 3566 888 3137 398 
Q 2709 -91 1959 -91 
Q 1206 -91 779 398 
Q 353 888 353 1747 
Q 353 2609 779 3096 
Q 1206 3584 1959 3584 
z
" transform="scale(0.015625)"/>
       <path id="DejaVuSans-72" d="M 2631 2963 
Q 2534 3019 2420 3045 
Q 2306 3072 2169 3072 
Q 1681 3072 1420 2755 
Q 1159 2438 1159 1844 
L 1159 0 
L 581 0 
L 581 3500 
L 1159 3500 
L 1159 2956 
Q 1341 3275 1631 3429 
Q 1922 3584 2338 3584 
Q 2397 3584 2469 3576 
Q 2541 3569 2628 3553 
L 2631 2963 
z
" transform="scale(0.015625)"/>
       <path id="DejaVuSans-65" d="M 3597 1894 
L 3597 1613 
L 953 1613 
Q 991 1019 1311 708 
Q 1631 397 2203 397 
Q 2534 397 2845 478 
Q 3156 559 3463 722 
L 3463 178 
Q 3153 47 2828 -22 
Q 2503 -91 2169 -91 
Q 1331 -91 842 396 
Q 353 884 353 1716 
Q 353 2575 817 3079 
Q 1281 3584 2069 3584 
Q 2775 3584 3186 3129 
Q 3597 2675 3597 1894 
z
M 3022 2063 
Q 3016 2534 2758 2815 
Q 2500 3097 2075 3097 
Q 1594 3097 1305 2825 
Q 1016 2553 972 2059 
L 3022 2063 
z
" transform="scale(0.015625)"/>
       <path id="DejaVuSans-2d" d="M 313 2009 
L 1997 2009 
L 1997 1497 
L 313 1497 
L 313 2009 
z
" transform="scale(0.015625)"/>
       <path id="DejaVuSans-29" d="M 513 4856 
L 1013 4856 
Q 1481 4119 1714 3412 
Q 1947 2706 1947 2009 
Q 1947 1309 1714 600 
Q 1481 -109 1013 -844 
L 513 -844 
Q 928 -128 1133 580 
Q 1338 1288 1338 2009 
Q 1338 2731 1133 3434 
Q 928 4138 513 4856 
z
" transform="scale(0.015625)"/>
      </defs>
      <use xlink:href="#DejaVuSans-28"/>
      <use xlink:href="#DejaVuSans-43" x="39.013672"/>
      <use xlink:href="#DejaVuSans-33" x="108.837891"/>
      <use xlink:href="#DejaVuSans-41" x="172.460938"/>
      <use xlink:href="#DejaVuSans-43" x="239.119141"/>
      <use xlink:href="#DejaVuSans-50" x="308.943359"/>
      <use xlink:href="#DejaVuSans-49" x="369.246094"/>
      <use xlink:href="#DejaVuSans-25" x="398.738281"/>
      <use xlink:href="#DejaVuSans-2c" x="493.757812"/>
      <use xlink:href="#DejaVuSans-20" x="525.544922"/>
      <use xlink:href="#DejaVuSans-43" x="557.332031"/>
      <use xlink:href="#DejaVuSans-6f" x="627.15625"/>
      <use xlink:href="#DejaVuSans-72" x="688.337891"/>
      <use xlink:href="#DejaVuSans-65" x="727.201172"/>
      <use xlink:href="#DejaVuSans-2d" x="788.724609"/>
      <use xlink:href="#DejaVuSans-30" x="824.808594"/>
      <use xlink:href="#DejaVuSans-29" x="888.431641"/>
     </g>
    </g>
   </g>
  </g>
  <g id="axes_2">
   <g id="patch_8">
    <path d="M 44.845313 175.755081 
L 435.445312 175.755081 
L 435.445312 99.286115 
L 44.845313 99.286115 
z
" style="fill: #ffffff"/>
   </g>
   <g id="matplotlib.axis_3">
    <g id="xtick_8">
     <g id="line2d_13">
      <g>
       <use xlink:href="#ma5cb0edc80" x="61.416222" y="175.755081" style="stroke: #000000; stroke-width: 0.8"/>
      </g>
     </g>
    </g>
    <g id="xtick_9">
     <g id="line2d_14">
      <g>
       <use xlink:href="#ma5cb0edc80" x="120.59804" y="175.755081" style="stroke: #000000; stroke-width: 0.8"/>
      </g>
     </g>
    </g>
    <g id="xtick_10">
     <g id="line2d_15">
      <g>
       <use xlink:href="#ma5cb0edc80" x="179.779858" y="175.755081" style="stroke: #000000; stroke-width: 0.8"/>
      </g>
     </g>
    </g>
    <g id="xtick_11">
     <g id="line2d_16">
      <g>
       <use xlink:href="#ma5cb0edc80" x="238.961676" y="175.755081" style="stroke: #000000; stroke-width: 0.8"/>
      </g>
     </g>
    </g>
    <g id="xtick_12">
     <g id="line2d_17">
      <g>
       <use xlink:href="#ma5cb0edc80" x="298.143494" y="175.755081" style="stroke: #000000; stroke-width: 0.8"/>
      </g>
     </g>
    </g>
    <g id="xtick_13">
     <g id="line2d_18">
      <g>
       <use xlink:href="#ma5cb0edc80" x="357.325312" y="175.755081" style="stroke: #000000; stroke-width: 0.8"/>
      </g>
     </g>
    </g>
    <g id="xtick_14">
     <g id="line2d_19">
      <g>
       <use xlink:href="#ma5cb0edc80" x="416.507131" y="175.755081" style="stroke: #000000; stroke-width: 0.8"/>
      </g>
     </g>
    </g>
   </g>
   <g id="matplotlib.axis_4">
    <g id="ytick_4">
     <g id="line2d_20">
      <g>
       <use xlink:href="#me7f6f4fc67" x="44.845313" y="172.279219" style="stroke: #000000; stroke-width: 0.8"/>
      </g>
     </g>
     <g id="text_5">
      <!-- −0.05 -->
      <g transform="translate(7.2 176.078437) scale(0.1 -0.1)">
       <use xlink:href="#DejaVuSans-2212"/>
       <use xlink:href="#DejaVuSans-30" x="83.789062"/>
       <use xlink:href="#DejaVuSans-2e" x="147.412109"/>
       <use xlink:href="#DejaVuSans-30" x="179.199219"/>
       <use xlink:href="#DejaVuSans-35" x="242.822266"/>
      </g>
     </g>
    </g>
    <g id="ytick_5">
     <g id="line2d_21">
      <g>
       <use xlink:href="#me7f6f4fc67" x="44.845313" y="137.520598" style="stroke: #000000; stroke-width: 0.8"/>
      </g>
     </g>
     <g id="text_6">
      <!-- 0.00 -->
      <g transform="translate(15.579688 141.319817) scale(0.1 -0.1)">
       <use xlink:href="#DejaVuSans-30"/>
       <use xlink:href="#DejaVuSans-2e" x="63.623047"/>
       <use xlink:href="#DejaVuSans-30" x="95.410156"/>
       <use xlink:href="#DejaVuSans-30" x="159.033203"/>
      </g>
     </g>
    </g>
    <g id="ytick_6">
     <g id="line2d_22">
      <g>
       <use xlink:href="#me7f6f4fc67" x="44.845313" y="102.761977" style="stroke: #000000; stroke-width: 0.8"/>
      </g>
     </g>
     <g id="text_7">
      <!-- 0.05 -->
      <g transform="translate(15.579688 106.561196) scale(0.1 -0.1)">
       <use xlink:href="#DejaVuSans-30"/>
       <use xlink:href="#DejaVuSans-2e" x="63.623047"/>
       <use xlink:href="#DejaVuSans-30" x="95.410156"/>
       <use xlink:href="#DejaVuSans-35" x="159.033203"/>
      </g>
     </g>
    </g>
   </g>
   <g id="line2d_23">
    <path d="M 62.599858 137.520598 
L 417.690767 137.520598 
L 417.690767 137.520598 
" clip-path="url(#p843997e9ec)" style="fill: none; stroke: #ff7f0e; stroke-width: 1.5; stroke-linecap: square"/>
   </g>
   <g id="patch_9">
    <path d="M 44.845313 175.755081 
L 44.845313 99.286115 
" style="fill: none; stroke: #000000; stroke-width: 0.8; stroke-linejoin: miter; stroke-linecap: square"/>
   </g>
   <g id="patch_10">
    <path d="M 435.445312 175.755081 
L 435.445312 99.286115 
" style="fill: none; stroke: #000000; stroke-width: 0.8; stroke-linejoin: miter; stroke-linecap: square"/>
   </g>
   <g id="patch_11">
    <path d="M 44.845313 175.755081 
L 435.445312 175.755081 
" style="fill: none; stroke: #000000; stroke-width: 0.8; stroke-linejoin: miter; stroke-linecap: square"/>
   </g>
   <g id="patch_12">
    <path d="M 44.845313 99.286115 
L 435.445312 99.286115 
" style="fill: none; stroke: #000000; stroke-width: 0.8; stroke-linejoin: miter; stroke-linecap: square"/>
   </g>
   <g id="legend_2">
    <g id="patch_13">
     <path d="M 303.7 121.96424 
L 428.445313 121.96424 
Q 430.445313 121.96424 430.445313 119.96424 
L 430.445313 106.286115 
Q 430.445313 104.286115 428.445313 104.286115 
L 303.7 104.286115 
Q 301.7 104.286115 301.7 106.286115 
L 301.7 119.96424 
Q 301.7 121.96424 303.7 121.96424 
z
" style="fill: #ffffff; opacity: 0.8; stroke: #cccccc; stroke-linejoin: miter"/>
    </g>
    <g id="line2d_24">
     <path d="M 305.7 112.384553 
L 315.7 112.384553 
L 325.7 112.384553 
" style="fill: none; stroke: #ff7f0e; stroke-width: 1.5; stroke-linecap: square"/>
    </g>
    <g id="text_8">
     <!-- (C3ACPI%, Core-1) -->
     <g transform="translate(333.7 115.884553) scale(0.1 -0.1)">
      <defs>
       <path id="DejaVuSans-31" d="M 794 531 
L 1825 531 
L 1825 4091 
L 703 3866 
L 703 4441 
L 1819 4666 
L 2450 4666 
L 2450 531 
L 3481 531 
L 3481 0 
L 794 0 
L 794 531 
z
" transform="scale(0.015625)"/>
      </defs>
      <use xlink:href="#DejaVuSans-28"/>
      <use xlink:href="#DejaVuSans-43" x="39.013672"/>
      <use xlink:href="#DejaVuSans-33" x="108.837891"/>
      <use xlink:href="#DejaVuSans-41" x="172.460938"/>
      <use xlink:href="#DejaVuSans-43" x="239.119141"/>
      <use xlink:href="#DejaVuSans-50" x="308.943359"/>
      <use xlink:href="#DejaVuSans-49" x="369.246094"/>
      <use xlink:href="#DejaVuSans-25" x="398.738281"/>
      <use xlink:href="#DejaVuSans-2c" x="493.757812"/>
      <use xlink:href="#DejaVuSans-20" x="525.544922"/>
      <use xlink:href="#DejaVuSans-43" x="557.332031"/>
      <use xlink:href="#DejaVuSans-6f" x="627.15625"/>
      <use xlink:href="#DejaVuSans-72" x="688.337891"/>
      <use xlink:href="#DejaVuSans-65" x="727.201172"/>
      <use xlink:href="#DejaVuSans-2d" x="788.724609"/>
      <use xlink:href="#DejaVuSans-31" x="824.808594"/>
      <use xlink:href="#DejaVuSans-29" x="888.431641"/>
     </g>
    </g>
   </g>
  </g>
  <g id="axes_3">
   <g id="patch_14">
    <path d="M 44.845313 267.517839 
L 435.445312 267.517839 
L 435.445312 191.048874 
L 44.845313 191.048874 
z
" style="fill: #ffffff"/>
   </g>
   <g id="matplotlib.axis_5">
    <g id="xtick_15">
     <g id="line2d_25">
      <g>
       <use xlink:href="#ma5cb0edc80" x="61.416222" y="267.517839" style="stroke: #000000; stroke-width: 0.8"/>
      </g>
     </g>
    </g>
    <g id="xtick_16">
     <g id="line2d_26">
      <g>
       <use xlink:href="#ma5cb0edc80" x="120.59804" y="267.517839" style="stroke: #000000; stroke-width: 0.8"/>
      </g>
     </g>
    </g>
    <g id="xtick_17">
     <g id="line2d_27">
      <g>
       <use xlink:href="#ma5cb0edc80" x="179.779858" y="267.517839" style="stroke: #000000; stroke-width: 0.8"/>
      </g>
     </g>
    </g>
    <g id="xtick_18">
     <g id="line2d_28">
      <g>
       <use xlink:href="#ma5cb0edc80" x="238.961676" y="267.517839" style="stroke: #000000; stroke-width: 0.8"/>
      </g>
     </g>
    </g>
    <g id="xtick_19">
     <g id="line2d_29">
      <g>
       <use xlink:href="#ma5cb0edc80" x="298.143494" y="267.517839" style="stroke: #000000; stroke-width: 0.8"/>
      </g>
     </g>
    </g>
    <g id="xtick_20">
     <g id="line2d_30">
      <g>
       <use xlink:href="#ma5cb0edc80" x="357.325312" y="267.517839" style="stroke: #000000; stroke-width: 0.8"/>
      </g>
     </g>
    </g>
    <g id="xtick_21">
     <g id="line2d_31">
      <g>
       <use xlink:href="#ma5cb0edc80" x="416.507131" y="267.517839" style="stroke: #000000; stroke-width: 0.8"/>
      </g>
     </g>
    </g>
   </g>
   <g id="matplotlib.axis_6">
    <g id="ytick_7">
     <g id="line2d_32">
      <g>
       <use xlink:href="#me7f6f4fc67" x="44.845313" y="264.041977" style="stroke: #000000; stroke-width: 0.8"/>
      </g>
     </g>
     <g id="text_9">
      <!-- −0.05 -->
      <g transform="translate(7.2 267.841196) scale(0.1 -0.1)">
       <use xlink:href="#DejaVuSans-2212"/>
       <use xlink:href="#DejaVuSans-30" x="83.789062"/>
       <use xlink:href="#DejaVuSans-2e" x="147.412109"/>
       <use xlink:href="#DejaVuSans-30" x="179.199219"/>
       <use xlink:href="#DejaVuSans-35" x="242.822266"/>
      </g>
     </g>
    </g>
    <g id="ytick_8">
     <g id="line2d_33">
      <g>
       <use xlink:href="#me7f6f4fc67" x="44.845313" y="229.283357" style="stroke: #000000; stroke-width: 0.8"/>
      </g>
     </g>
     <g id="text_10">
      <!-- 0.00 -->
      <g transform="translate(15.579688 233.082575) scale(0.1 -0.1)">
       <use xlink:href="#DejaVuSans-30"/>
       <use xlink:href="#DejaVuSans-2e" x="63.623047"/>
       <use xlink:href="#DejaVuSans-30" x="95.410156"/>
       <use xlink:href="#DejaVuSans-30" x="159.033203"/>
      </g>
     </g>
    </g>
    <g id="ytick_9">
     <g id="line2d_34">
      <g>
       <use xlink:href="#me7f6f4fc67" x="44.845313" y="194.524736" style="stroke: #000000; stroke-width: 0.8"/>
      </g>
     </g>
     <g id="text_11">
      <!-- 0.05 -->
      <g transform="translate(15.579688 198.323955) scale(0.1 -0.1)">
       <use xlink:href="#DejaVuSans-30"/>
       <use xlink:href="#DejaVuSans-2e" x="63.623047"/>
       <use xlink:href="#DejaVuSans-30" x="95.410156"/>
       <use xlink:href="#DejaVuSans-35" x="159.033203"/>
      </g>
     </g>
    </g>
   </g>
   <g id="line2d_35">
    <path d="M 62.599858 229.283357 
L 417.690767 229.283357 
L 417.690767 229.283357 
" clip-path="url(#p67b841bc38)" style="fill: none; stroke: #2ca02c; stroke-width: 1.5; stroke-linecap: square"/>
   </g>
   <g id="patch_15">
    <path d="M 44.845313 267.517839 
L 44.845313 191.048874 
" style="fill: none; stroke: #000000; stroke-width: 0.8; stroke-linejoin: miter; stroke-linecap: square"/>
   </g>
   <g id="patch_16">
    <path d="M 435.445312 267.517839 
L 435.445312 191.048874 
" style="fill: none; stroke: #000000; stroke-width: 0.8; stroke-linejoin: miter; stroke-linecap: square"/>
   </g>
   <g id="patch_17">
    <path d="M 44.845313 267.517839 
L 435.445312 267.517839 
" style="fill: none; stroke: #000000; stroke-width: 0.8; stroke-linejoin: miter; stroke-linecap: square"/>
   </g>
   <g id="patch_18">
    <path d="M 44.845313 191.048874 
L 435.445312 191.048874 
" style="fill: none; stroke: #000000; stroke-width: 0.8; stroke-linejoin: miter; stroke-linecap: square"/>
   </g>
   <g id="legend_3">
    <g id="patch_19">
     <path d="M 303.7 213.726999 
L 428.445313 213.726999 
Q 430.445313 213.726999 430.445313 211.726999 
L 430.445313 198.048874 
Q 430.445313 196.048874 428.445313 196.048874 
L 303.7 196.048874 
Q 301.7 196.048874 301.7 198.048874 
L 301.7 211.726999 
Q 301.7 213.726999 303.7 213.726999 
z
" style="fill: #ffffff; opacity: 0.8; stroke: #cccccc; stroke-linejoin: miter"/>
    </g>
    <g id="line2d_36">
     <path d="M 305.7 204.147311 
L 315.7 204.147311 
L 325.7 204.147311 
" style="fill: none; stroke: #2ca02c; stroke-width: 1.5; stroke-linecap: square"/>
    </g>
    <g id="text_12">
     <!-- (C3ACPI%, Core-2) -->
     <g transform="translate(333.7 207.647311) scale(0.1 -0.1)">
      <defs>
       <path id="DejaVuSans-32" d="M 1228 531 
L 3431 531 
L 3431 0 
L 469 0 
L 469 531 
Q 828 903 1448 1529 
Q 2069 2156 2228 2338 
Q 2531 2678 2651 2914 
Q 2772 3150 2772 3378 
Q 2772 3750 2511 3984 
Q 2250 4219 1831 4219 
Q 1534 4219 1204 4116 
Q 875 4013 500 3803 
L 500 4441 
Q 881 4594 1212 4672 
Q 1544 4750 1819 4750 
Q 2544 4750 2975 4387 
Q 3406 4025 3406 3419 
Q 3406 3131 3298 2873 
Q 3191 2616 2906 2266 
Q 2828 2175 2409 1742 
Q 1991 1309 1228 531 
z
" transform="scale(0.015625)"/>
      </defs>
      <use xlink:href="#DejaVuSans-28"/>
      <use xlink:href="#DejaVuSans-43" x="39.013672"/>
      <use xlink:href="#DejaVuSans-33" x="108.837891"/>
      <use xlink:href="#DejaVuSans-41" x="172.460938"/>
      <use xlink:href="#DejaVuSans-43" x="239.119141"/>
      <use xlink:href="#DejaVuSans-50" x="308.943359"/>
      <use xlink:href="#DejaVuSans-49" x="369.246094"/>
      <use xlink:href="#DejaVuSans-25" x="398.738281"/>
      <use xlink:href="#DejaVuSans-2c" x="493.757812"/>
      <use xlink:href="#DejaVuSans-20" x="525.544922"/>
      <use xlink:href="#DejaVuSans-43" x="557.332031"/>
      <use xlink:href="#DejaVuSans-6f" x="627.15625"/>
      <use xlink:href="#DejaVuSans-72" x="688.337891"/>
      <use xlink:href="#DejaVuSans-65" x="727.201172"/>
      <use xlink:href="#DejaVuSans-2d" x="788.724609"/>
      <use xlink:href="#DejaVuSans-32" x="824.808594"/>
      <use xlink:href="#DejaVuSans-29" x="888.431641"/>
     </g>
    </g>
   </g>
  </g>
  <g id="axes_4">
   <g id="patch_20">
    <path d="M 44.845313 359.280598 
L 435.445312 359.280598 
L 435.445312 282.811633 
L 44.845313 282.811633 
z
" style="fill: #ffffff"/>
   </g>
   <g id="matplotlib.axis_7">
    <g id="xtick_22">
     <g id="line2d_37">
      <g>
       <use xlink:href="#ma5cb0edc80" x="61.416222" y="359.280598" style="stroke: #000000; stroke-width: 0.8"/>
      </g>
     </g>
    </g>
    <g id="xtick_23">
     <g id="line2d_38">
      <g>
       <use xlink:href="#ma5cb0edc80" x="120.59804" y="359.280598" style="stroke: #000000; stroke-width: 0.8"/>
      </g>
     </g>
    </g>
    <g id="xtick_24">
     <g id="line2d_39">
      <g>
       <use xlink:href="#ma5cb0edc80" x="179.779858" y="359.280598" style="stroke: #000000; stroke-width: 0.8"/>
      </g>
     </g>
    </g>
    <g id="xtick_25">
     <g id="line2d_40">
      <g>
       <use xlink:href="#ma5cb0edc80" x="238.961676" y="359.280598" style="stroke: #000000; stroke-width: 0.8"/>
      </g>
     </g>
    </g>
    <g id="xtick_26">
     <g id="line2d_41">
      <g>
       <use xlink:href="#ma5cb0edc80" x="298.143494" y="359.280598" style="stroke: #000000; stroke-width: 0.8"/>
      </g>
     </g>
    </g>
    <g id="xtick_27">
     <g id="line2d_42">
      <g>
       <use xlink:href="#ma5cb0edc80" x="357.325312" y="359.280598" style="stroke: #000000; stroke-width: 0.8"/>
      </g>
     </g>
    </g>
    <g id="xtick_28">
     <g id="line2d_43">
      <g>
       <use xlink:href="#ma5cb0edc80" x="416.507131" y="359.280598" style="stroke: #000000; stroke-width: 0.8"/>
      </g>
     </g>
    </g>
   </g>
   <g id="matplotlib.axis_8">
    <g id="ytick_10">
     <g id="line2d_44">
      <g>
       <use xlink:href="#me7f6f4fc67" x="44.845313" y="355.804736" style="stroke: #000000; stroke-width: 0.8"/>
      </g>
     </g>
     <g id="text_13">
      <!-- 0 -->
      <g transform="translate(31.482813 359.603955) scale(0.1 -0.1)">
       <use xlink:href="#DejaVuSans-30"/>
      </g>
     </g>
    </g>
    <g id="ytick_11">
     <g id="line2d_45">
      <g>
       <use xlink:href="#me7f6f4fc67" x="44.845313" y="318.968555" style="stroke: #000000; stroke-width: 0.8"/>
      </g>
     </g>
     <g id="text_14">
      <!-- 50 -->
      <g transform="translate(25.120313 322.767773) scale(0.1 -0.1)">
       <use xlink:href="#DejaVuSans-35"/>
       <use xlink:href="#DejaVuSans-30" x="63.623047"/>
      </g>
     </g>
    </g>
   </g>
   <g id="line2d_46">
    <path d="M 62.599858 355.804736 
L 248.430767 355.804736 
L 249.614403 345.218017 
L 250.79804 320.626183 
L 251.981676 330.063612 
L 253.165313 324.147722 
L 254.348949 300.167368 
L 255.532585 308.47761 
L 256.716222 319.410589 
L 257.899858 316.390022 
L 259.083494 324.280332 
L 260.267131 299.68113 
L 261.450767 315.122857 
L 262.634403 322.991066 
L 263.81804 341.843823 
L 265.001676 354.478633 
L 266.185313 320.375697 
L 267.368949 318.231831 
L 268.552585 321.915449 
L 269.736222 320.825098 
L 270.919858 311.092979 
L 272.103494 315.999558 
L 273.287131 324.236129 
L 274.470767 321.804941 
L 275.654403 318.158159 
L 276.83804 294.708246 
L 278.021676 354.346023 
L 279.205312 339.582082 
L 280.388949 330.616155 
L 281.572585 317.318294 
L 282.756222 309.951057 
L 285.123494 321.046115 
L 286.307131 312.31594 
L 288.674403 314.614518 
L 289.85804 313.745184 
L 291.041676 327.986052 
L 292.225313 344.076096 
L 294.592585 318.040283 
L 295.776222 321.281867 
L 296.959858 321.554455 
L 298.143494 315.645931 
L 299.327131 317.362497 
L 300.510767 329.827861 
L 301.694403 322.74058 
L 302.87804 321.068217 
L 304.061676 298.50974 
L 306.428949 343.553022 
L 307.612585 353.344079 
L 308.796222 305.935914 
L 309.979858 320.589347 
L 311.163494 324.722366 
L 312.347131 314.857637 
L 313.530767 315.019716 
L 314.714403 314.231422 
L 315.89804 326.748356 
L 317.081676 327.809238 
L 318.265312 322.917393 
L 319.448949 315.469117 
L 320.632585 353.432486 
L 321.816222 342.197451 
L 324.183494 313.133704 
L 325.367131 319.712646 
L 326.550767 332.936835 
L 327.734403 323.492038 
L 328.91804 307.770356 
L 330.101676 322.246975 
L 331.285313 320.478838 
L 332.468949 322.910026 
L 333.652585 321.959653 
L 334.836222 349.321568 
L 336.019858 337.335075 
L 338.387131 320.802997 
L 339.570767 319.417956 
L 340.754403 328.995363 
L 341.93804 330.321466 
L 343.121676 321.141889 
L 344.305313 298.458169 
L 345.488949 329.054301 
L 346.672585 326.932537 
L 347.856222 300.078961 
L 349.039858 339.847302 
L 350.223494 310.5036 
L 351.407131 296.933151 
L 352.590767 296.631094 
L 353.774403 297.640406 
L 354.95804 302.208092 
L 356.141676 305.250761 
L 357.325312 303.932025 
L 358.508949 303.379483 
L 359.692585 298.038236 
L 360.876222 295.665986 
L 362.059858 296.218529 
L 363.243494 310.842493 
L 364.427131 301.007233 
L 365.610767 294.538799 
L 366.794403 292.019204 
L 367.97804 295.223952 
L 369.161676 299.275932 
L 370.345313 300.071594 
L 371.528949 292.726459 
L 372.712585 292.601216 
L 373.896222 296.108021 
L 375.079858 299.239096 
L 376.263494 297.264677 
L 377.447131 309.693204 
L 378.630767 298.126643 
L 379.814403 299.990554 
L 380.99804 295.953309 
L 382.181676 302.885878 
L 383.365313 301.397696 
L 384.548949 290.678367 
L 385.732585 297.861423 
L 386.916222 296.306936 
L 388.099858 298.391864 
L 389.283494 293.964155 
L 390.467131 294.848223 
L 391.650767 302.340702 
L 392.834403 296.608993 
L 394.01804 304.153043 
L 395.201676 300.093695 
L 396.385312 293.352674 
L 397.568949 292.063408 
L 398.752585 296.785806 
L 399.936222 299.003344 
L 401.119858 300.498893 
L 402.303494 292.755928 
L 403.487131 296.756337 
L 404.670767 303.541562 
L 405.854403 302.885878 
L 408.221676 290.096356 
L 409.405313 302.517516 
L 410.588949 295.275523 
L 411.772585 294.479861 
L 412.956222 302.922714 
L 414.139858 301.405063 
L 415.323494 303.512093 
L 416.507131 290.899385 
L 417.690767 286.287495 
L 417.690767 286.287495 
" clip-path="url(#p7b56e3369a)" style="fill: none; stroke: #d62728; stroke-width: 1.5; stroke-linecap: square"/>
   </g>
   <g id="patch_21">
    <path d="M 44.845313 359.280598 
L 44.845313 282.811633 
" style="fill: none; stroke: #000000; stroke-width: 0.8; stroke-linejoin: miter; stroke-linecap: square"/>
   </g>
   <g id="patch_22">
    <path d="M 435.445312 359.280598 
L 435.445312 282.811633 
" style="fill: none; stroke: #000000; stroke-width: 0.8; stroke-linejoin: miter; stroke-linecap: square"/>
   </g>
   <g id="patch_23">
    <path d="M 44.845313 359.280598 
L 435.445312 359.280598 
" style="fill: none; stroke: #000000; stroke-width: 0.8; stroke-linejoin: miter; stroke-linecap: square"/>
   </g>
   <g id="patch_24">
    <path d="M 44.845313 282.811633 
L 435.445312 282.811633 
" style="fill: none; stroke: #000000; stroke-width: 0.8; stroke-linejoin: miter; stroke-linecap: square"/>
   </g>
   <g id="legend_4">
    <g id="patch_25">
     <path d="M 51.845313 305.489758 
L 176.590625 305.489758 
Q 178.590625 305.489758 178.590625 303.489758 
L 178.590625 289.811633 
Q 178.590625 287.811633 176.590625 287.811633 
L 51.845313 287.811633 
Q 49.845313 287.811633 49.845313 289.811633 
L 49.845313 303.489758 
Q 49.845313 305.489758 51.845313 305.489758 
z
" style="fill: #ffffff; opacity: 0.8; stroke: #cccccc; stroke-linejoin: miter"/>
    </g>
    <g id="line2d_47">
     <path d="M 53.845313 295.91007 
L 63.845313 295.91007 
L 73.845313 295.91007 
" style="fill: none; stroke: #d62728; stroke-width: 1.5; stroke-linecap: square"/>
    </g>
    <g id="text_15">
     <!-- (C3ACPI%, Core-3) -->
     <g transform="translate(81.845313 299.41007) scale(0.1 -0.1)">
      <use xlink:href="#DejaVuSans-28"/>
      <use xlink:href="#DejaVuSans-43" x="39.013672"/>
      <use xlink:href="#DejaVuSans-33" x="108.837891"/>
      <use xlink:href="#DejaVuSans-41" x="172.460938"/>
      <use xlink:href="#DejaVuSans-43" x="239.119141"/>
      <use xlink:href="#DejaVuSans-50" x="308.943359"/>
      <use xlink:href="#DejaVuSans-49" x="369.246094"/>
      <use xlink:href="#DejaVuSans-25" x="398.738281"/>
      <use xlink:href="#DejaVuSans-2c" x="493.757812"/>
      <use xlink:href="#DejaVuSans-20" x="525.544922"/>
      <use xlink:href="#DejaVuSans-43" x="557.332031"/>
      <use xlink:href="#DejaVuSans-6f" x="627.15625"/>
      <use xlink:href="#DejaVuSans-72" x="688.337891"/>
      <use xlink:href="#DejaVuSans-65" x="727.201172"/>
      <use xlink:href="#DejaVuSans-2d" x="788.724609"/>
      <use xlink:href="#DejaVuSans-33" x="824.808594"/>
      <use xlink:href="#DejaVuSans-29" x="888.431641"/>
     </g>
    </g>
   </g>
  </g>
  <g id="axes_5">
   <g id="patch_26">
    <path d="M 44.845313 451.043357 
L 435.445312 451.043357 
L 435.445312 374.574391 
L 44.845313 374.574391 
z
" style="fill: #ffffff"/>
   </g>
   <g id="matplotlib.axis_9">
    <g id="xtick_29">
     <g id="line2d_48">
      <g>
       <use xlink:href="#ma5cb0edc80" x="61.416222" y="451.043357" style="stroke: #000000; stroke-width: 0.8"/>
      </g>
     </g>
     <g id="text_16">
      <!-- 0 -->
      <g transform="translate(58.234972 465.641794) scale(0.1 -0.1)">
       <use xlink:href="#DejaVuSans-30"/>
      </g>
     </g>
    </g>
    <g id="xtick_30">
     <g id="line2d_49">
      <g>
       <use xlink:href="#ma5cb0edc80" x="120.59804" y="451.043357" style="stroke: #000000; stroke-width: 0.8"/>
      </g>
     </g>
     <g id="text_17">
      <!-- 50 -->
      <g transform="translate(114.23554 465.641794) scale(0.1 -0.1)">
       <use xlink:href="#DejaVuSans-35"/>
       <use xlink:href="#DejaVuSans-30" x="63.623047"/>
      </g>
     </g>
    </g>
    <g id="xtick_31">
     <g id="line2d_50">
      <g>
       <use xlink:href="#ma5cb0edc80" x="179.779858" y="451.043357" style="stroke: #000000; stroke-width: 0.8"/>
      </g>
     </g>
     <g id="text_18">
      <!-- 100 -->
      <g transform="translate(170.236108 465.641794) scale(0.1 -0.1)">
       <use xlink:href="#DejaVuSans-31"/>
       <use xlink:href="#DejaVuSans-30" x="63.623047"/>
       <use xlink:href="#DejaVuSans-30" x="127.246094"/>
      </g>
     </g>
    </g>
    <g id="xtick_32">
     <g id="line2d_51">
      <g>
       <use xlink:href="#ma5cb0edc80" x="238.961676" y="451.043357" style="stroke: #000000; stroke-width: 0.8"/>
      </g>
     </g>
     <g id="text_19">
      <!-- 150 -->
      <g transform="translate(229.417926 465.641794) scale(0.1 -0.1)">
       <use xlink:href="#DejaVuSans-31"/>
       <use xlink:href="#DejaVuSans-35" x="63.623047"/>
       <use xlink:href="#DejaVuSans-30" x="127.246094"/>
      </g>
     </g>
    </g>
    <g id="xtick_33">
     <g id="line2d_52">
      <g>
       <use xlink:href="#ma5cb0edc80" x="298.143494" y="451.043357" style="stroke: #000000; stroke-width: 0.8"/>
      </g>
     </g>
     <g id="text_20">
      <!-- 200 -->
      <g transform="translate(288.599744 465.641794) scale(0.1 -0.1)">
       <use xlink:href="#DejaVuSans-32"/>
       <use xlink:href="#DejaVuSans-30" x="63.623047"/>
       <use xlink:href="#DejaVuSans-30" x="127.246094"/>
      </g>
     </g>
    </g>
    <g id="xtick_34">
     <g id="line2d_53">
      <g>
       <use xlink:href="#ma5cb0edc80" x="357.325312" y="451.043357" style="stroke: #000000; stroke-width: 0.8"/>
      </g>
     </g>
     <g id="text_21">
      <!-- 250 -->
      <g transform="translate(347.781563 465.641794) scale(0.1 -0.1)">
       <use xlink:href="#DejaVuSans-32"/>
       <use xlink:href="#DejaVuSans-35" x="63.623047"/>
       <use xlink:href="#DejaVuSans-30" x="127.246094"/>
      </g>
     </g>
    </g>
    <g id="xtick_35">
     <g id="line2d_54">
      <g>
       <use xlink:href="#ma5cb0edc80" x="416.507131" y="451.043357" style="stroke: #000000; stroke-width: 0.8"/>
      </g>
     </g>
     <g id="text_22">
      <!-- 300 -->
      <g transform="translate(406.963381 465.641794) scale(0.1 -0.1)">
       <use xlink:href="#DejaVuSans-33"/>
       <use xlink:href="#DejaVuSans-30" x="63.623047"/>
       <use xlink:href="#DejaVuSans-30" x="127.246094"/>
      </g>
     </g>
    </g>
    <g id="text_23">
     <!-- Clk -->
     <g transform="translate(232.369531 479.319919) scale(0.1 -0.1)">
      <defs>
       <path id="DejaVuSans-6c" d="M 603 4863 
L 1178 4863 
L 1178 0 
L 603 0 
L 603 4863 
z
" transform="scale(0.015625)"/>
       <path id="DejaVuSans-6b" d="M 581 4863 
L 1159 4863 
L 1159 1991 
L 2875 3500 
L 3609 3500 
L 1753 1863 
L 3688 0 
L 2938 0 
L 1159 1709 
L 1159 0 
L 581 0 
L 581 4863 
z
" transform="scale(0.015625)"/>
      </defs>
      <use xlink:href="#DejaVuSans-43"/>
      <use xlink:href="#DejaVuSans-6c" x="69.824219"/>
      <use xlink:href="#DejaVuSans-6b" x="97.607422"/>
     </g>
    </g>
   </g>
   <g id="matplotlib.axis_10">
    <g id="ytick_12">
     <g id="line2d_55">
      <g>
       <use xlink:href="#me7f6f4fc67" x="44.845313" y="447.567495" style="stroke: #000000; stroke-width: 0.8"/>
      </g>
     </g>
     <g id="text_24">
      <!-- 0 -->
      <g transform="translate(31.482813 451.366713) scale(0.1 -0.1)">
       <use xlink:href="#DejaVuSans-30"/>
      </g>
     </g>
    </g>
    <g id="ytick_13">
     <g id="line2d_56">
      <g>
       <use xlink:href="#me7f6f4fc67" x="44.845313" y="418.09855" style="stroke: #000000; stroke-width: 0.8"/>
      </g>
     </g>
     <g id="text_25">
      <!-- 10 -->
      <g transform="translate(25.120313 421.897768) scale(0.1 -0.1)">
       <use xlink:href="#DejaVuSans-31"/>
       <use xlink:href="#DejaVuSans-30" x="63.623047"/>
      </g>
     </g>
    </g>
    <g id="ytick_14">
     <g id="line2d_57">
      <g>
       <use xlink:href="#me7f6f4fc67" x="44.845313" y="388.629605" style="stroke: #000000; stroke-width: 0.8"/>
      </g>
     </g>
     <g id="text_26">
      <!-- 20 -->
      <g transform="translate(25.120313 392.428823) scale(0.1 -0.1)">
       <use xlink:href="#DejaVuSans-32"/>
       <use xlink:href="#DejaVuSans-30" x="63.623047"/>
      </g>
     </g>
    </g>
   </g>
   <g id="line2d_58">
    <path d="M 62.599858 447.567495 
L 248.430767 447.567495 
L 249.614403 436.988143 
L 250.79804 412.381574 
L 251.981676 421.841106 
L 253.165313 415.917848 
L 254.348949 391.930126 
L 255.532585 400.240369 
L 256.716222 411.173347 
L 257.899858 408.167515 
L 259.083494 416.035723 
L 260.267131 391.458623 
L 261.450767 406.90035 
L 262.634403 414.73909 
L 263.81804 433.599215 
L 265.001676 446.241392 
L 266.185313 412.145823 
L 267.368949 409.99459 
L 268.552585 413.678208 
L 269.736222 412.587857 
L 270.919858 402.863105 
L 272.103494 407.75495 
L 273.287131 416.006254 
L 274.470767 413.560332 
L 275.654403 409.935652 
L 276.83804 386.478372 
L 278.021676 446.123516 
L 279.205312 431.330106 
L 280.388949 422.371547 
L 281.572585 409.081052 
L 282.756222 401.713816 
L 285.123494 412.794139 
L 286.307131 404.071332 
L 288.674403 406.369909 
L 289.85804 405.51531 
L 291.041676 419.74881 
L 292.225313 435.838854 
L 294.592585 409.817776 
L 295.776222 413.05936 
L 296.959858 413.32458 
L 298.143494 407.401323 
L 299.327131 409.13999 
L 300.510767 421.575885 
L 301.694403 414.503338 
L 302.87804 412.823608 
L 304.061676 390.279865 
L 306.428949 435.308413 
L 307.612585 445.092103 
L 308.796222 397.70604 
L 309.979858 412.352105 
L 311.163494 416.477758 
L 312.347131 406.605661 
L 313.530767 406.782475 
L 314.714403 405.986813 
L 315.89804 418.511115 
L 317.081676 419.571997 
L 318.265312 414.680152 
L 319.448949 407.224509 
L 320.632585 445.18051 
L 321.816222 433.952842 
L 324.183494 404.896462 
L 325.367131 411.468037 
L 326.550767 424.699593 
L 327.734403 415.269531 
L 328.91804 399.533114 
L 330.101676 414.002366 
L 331.285313 412.234229 
L 332.468949 414.680152 
L 333.652585 413.737146 
L 334.836222 441.084327 
L 336.019858 429.090466 
L 338.387131 412.558388 
L 339.570767 411.173347 
L 340.754403 420.750755 
L 341.93804 422.076857 
L 343.121676 412.912015 
L 344.305313 390.220928 
L 345.488949 420.809693 
L 346.672585 418.687928 
L 347.856222 391.84172 
L 349.039858 431.595326 
L 350.223494 402.273726 
L 351.407131 388.688542 
L 352.590767 388.393853 
L 353.774403 389.395797 
L 354.95804 393.963484 
L 356.141676 397.028254 
L 357.325312 395.702151 
L 358.508949 395.142241 
L 359.692585 389.808362 
L 360.876222 387.421378 
L 362.059858 387.981288 
L 363.243494 402.597884 
L 364.427131 392.755257 
L 365.610767 386.301558 
L 366.794403 383.796698 
L 367.97804 386.979344 
L 369.161676 391.046058 
L 370.345313 391.84172 
L 371.528949 384.503952 
L 372.712585 384.356607 
L 373.896222 387.863412 
L 375.079858 391.016589 
L 376.263494 389.012701 
L 377.447131 401.448596 
L 378.630767 389.896769 
L 379.814403 391.753313 
L 380.99804 387.716067 
L 382.181676 394.641269 
L 383.365313 393.167822 
L 384.548949 382.441126 
L 385.732585 389.631549 
L 386.916222 388.069695 
L 388.099858 390.16199 
L 389.283494 385.712179 
L 390.467131 386.596247 
L 391.650767 394.110828 
L 392.834403 388.364384 
L 394.01804 395.908434 
L 395.201676 391.84172 
L 396.385312 385.1228 
L 397.568949 383.826166 
L 398.752585 388.541198 
L 399.936222 390.780837 
L 401.119858 392.254285 
L 402.303494 384.503952 
L 403.487131 388.511729 
L 404.670767 395.319055 
L 405.854403 394.641269 
L 408.221676 381.851747 
L 409.405313 394.287642 
L 410.588949 387.038281 
L 411.772585 386.24262 
L 412.956222 394.670738 
L 414.139858 393.167822 
L 415.323494 395.260117 
L 416.507131 382.647409 
L 417.690767 378.050253 
L 417.690767 378.050253 
" clip-path="url(#pc5d0ccce8a)" style="fill: none; stroke: #9467bd; stroke-width: 1.5; stroke-linecap: square"/>
   </g>
   <g id="patch_27">
    <path d="M 44.845313 451.043357 
L 44.845313 374.574391 
" style="fill: none; stroke: #000000; stroke-width: 0.8; stroke-linejoin: miter; stroke-linecap: square"/>
   </g>
   <g id="patch_28">
    <path d="M 435.445312 451.043357 
L 435.445312 374.574391 
" style="fill: none; stroke: #000000; stroke-width: 0.8; stroke-linejoin: miter; stroke-linecap: square"/>
   </g>
   <g id="patch_29">
    <path d="M 44.845313 451.043357 
L 435.445312 451.043357 
" style="fill: none; stroke: #000000; stroke-width: 0.8; stroke-linejoin: miter; stroke-linecap: square"/>
   </g>
   <g id="patch_30">
    <path d="M 44.845313 374.574391 
L 435.445312 374.574391 
" style="fill: none; stroke: #000000; stroke-width: 0.8; stroke-linejoin: miter; stroke-linecap: square"/>
   </g>
   <g id="legend_5">
    <g id="patch_31">
     <path d="M 51.845313 397.252516 
L 179.21875 397.252516 
Q 181.21875 397.252516 181.21875 395.252516 
L 181.21875 381.574391 
Q 181.21875 379.574391 179.21875 379.574391 
L 51.845313 379.574391 
Q 49.845313 379.574391 49.845313 381.574391 
L 49.845313 395.252516 
Q 49.845313 397.252516 51.845313 397.252516 
z
" style="fill: #ffffff; opacity: 0.8; stroke: #cccccc; stroke-linejoin: miter"/>
    </g>
    <g id="line2d_59">
     <path d="M 53.845313 387.672829 
L 63.845313 387.672829 
L 73.845313 387.672829 
" style="fill: none; stroke: #9467bd; stroke-width: 1.5; stroke-linecap: square"/>
    </g>
    <g id="text_27">
     <!-- (C3ACPI%, Overall) -->
     <g transform="translate(81.845313 391.172829) scale(0.1 -0.1)">
      <defs>
       <path id="DejaVuSans-4f" d="M 2522 4238 
Q 1834 4238 1429 3725 
Q 1025 3213 1025 2328 
Q 1025 1447 1429 934 
Q 1834 422 2522 422 
Q 3209 422 3611 934 
Q 4013 1447 4013 2328 
Q 4013 3213 3611 3725 
Q 3209 4238 2522 4238 
z
M 2522 4750 
Q 3503 4750 4090 4092 
Q 4678 3434 4678 2328 
Q 4678 1225 4090 567 
Q 3503 -91 2522 -91 
Q 1538 -91 948 565 
Q 359 1222 359 2328 
Q 359 3434 948 4092 
Q 1538 4750 2522 4750 
z
" transform="scale(0.015625)"/>
       <path id="DejaVuSans-76" d="M 191 3500 
L 800 3500 
L 1894 563 
L 2988 3500 
L 3597 3500 
L 2284 0 
L 1503 0 
L 191 3500 
z
" transform="scale(0.015625)"/>
       <path id="DejaVuSans-61" d="M 2194 1759 
Q 1497 1759 1228 1600 
Q 959 1441 959 1056 
Q 959 750 1161 570 
Q 1363 391 1709 391 
Q 2188 391 2477 730 
Q 2766 1069 2766 1631 
L 2766 1759 
L 2194 1759 
z
M 3341 1997 
L 3341 0 
L 2766 0 
L 2766 531 
Q 2569 213 2275 61 
Q 1981 -91 1556 -91 
Q 1019 -91 701 211 
Q 384 513 384 1019 
Q 384 1609 779 1909 
Q 1175 2209 1959 2209 
L 2766 2209 
L 2766 2266 
Q 2766 2663 2505 2880 
Q 2244 3097 1772 3097 
Q 1472 3097 1187 3025 
Q 903 2953 641 2809 
L 641 3341 
Q 956 3463 1253 3523 
Q 1550 3584 1831 3584 
Q 2591 3584 2966 3190 
Q 3341 2797 3341 1997 
z
" transform="scale(0.015625)"/>
      </defs>
      <use xlink:href="#DejaVuSans-28"/>
      <use xlink:href="#DejaVuSans-43" x="39.013672"/>
      <use xlink:href="#DejaVuSans-33" x="108.837891"/>
      <use xlink:href="#DejaVuSans-41" x="172.460938"/>
      <use xlink:href="#DejaVuSans-43" x="239.119141"/>
      <use xlink:href="#DejaVuSans-50" x="308.943359"/>
      <use xlink:href="#DejaVuSans-49" x="369.246094"/>
      <use xlink:href="#DejaVuSans-25" x="398.738281"/>
      <use xlink:href="#DejaVuSans-2c" x="493.757812"/>
      <use xlink:href="#DejaVuSans-20" x="525.544922"/>
      <use xlink:href="#DejaVuSans-4f" x="557.332031"/>
      <use xlink:href="#DejaVuSans-76" x="636.042969"/>
      <use xlink:href="#DejaVuSans-65" x="695.222656"/>
      <use xlink:href="#DejaVuSans-72" x="756.746094"/>
      <use xlink:href="#DejaVuSans-61" x="797.859375"/>
      <use xlink:href="#DejaVuSans-6c" x="859.138672"/>
      <use xlink:href="#DejaVuSans-6c" x="886.921875"/>
      <use xlink:href="#DejaVuSans-29" x="914.705078"/>
     </g>
    </g>
   </g>
  </g>
 </g>
 <defs>
  <clipPath id="p5484651be0">
   <rect x="44.845313" y="7.523357" width="390.6" height="76.468966"/>
  </clipPath>
  <clipPath id="p843997e9ec">
   <rect x="44.845313" y="99.286115" width="390.6" height="76.468966"/>
  </clipPath>
  <clipPath id="p67b841bc38">
   <rect x="44.845313" y="191.048874" width="390.6" height="76.468966"/>
  </clipPath>
  <clipPath id="p7b56e3369a">
   <rect x="44.845313" y="282.811633" width="390.6" height="76.468966"/>
  </clipPath>
  <clipPath id="pc5d0ccce8a">
   <rect x="44.845313" y="374.574391" width="390.6" height="76.468966"/>
  </clipPath>
 </defs>
</svg>
