<?xml version="1.0" encoding="utf-8" standalone="no"?>
<!DOCTYPE svg PUBLIC "-//W3C//DTD SVG 1.1//EN"
  "http://www.w3.org/Graphics/SVG/1.1/DTD/svg11.dtd">
<svg xmlns:xlink="http://www.w3.org/1999/xlink" width="592.125pt" height="211.07625pt" viewBox="0 0 592.125 211.07625" xmlns="http://www.w3.org/2000/svg" version="1.1">
 <metadata>
  <rdf:RDF xmlns:dc="http://purl.org/dc/elements/1.1/" xmlns:cc="http://creativecommons.org/ns#" xmlns:rdf="http://www.w3.org/1999/02/22-rdf-syntax-ns#">
   <cc:Work>
    <dc:type rdf:resource="http://purl.org/dc/dcmitype/StillImage"/>
    <dc:date>2024-02-01T18:31:59.000272</dc:date>
    <dc:format>image/svg+xml</dc:format>
    <dc:creator>
     <cc:Agent>
      <dc:title>Matplotlib v3.8.1, https://matplotlib.org/</dc:title>
     </cc:Agent>
    </dc:creator>
   </cc:Work>
  </rdf:RDF>
 </metadata>
 <defs>
  <style type="text/css">*{stroke-linejoin: round; stroke-linecap: butt}</style>
 </defs>
 <g id="figure_1">
  <g id="patch_1">
   <path d="M 0 211.07625 
L 592.125 211.07625 
L 592.125 0 
L 0 0 
z
" style="fill: #ffffff"/>
  </g>
  <g id="axes_1">
   <g id="patch_2">
    <path d="M 26.925 173.52 
L 584.925 173.52 
L 584.925 7.2 
L 26.925 7.2 
z
" style="fill: #ffffff"/>
   </g>
   <g id="matplotlib.axis_1">
    <g id="xtick_1">
     <g id="line2d_1">
      <defs>
       <path id="mdf5b0c862c" d="M 0 0 
L 0 3.5 
" style="stroke: #000000; stroke-width: 0.8"/>
      </defs>
      <g>
       <use xlink:href="#mdf5b0c862c" x="50.597727" y="173.52" style="stroke: #000000; stroke-width: 0.8"/>
      </g>
     </g>
     <g id="text_1">
      <!-- 0 -->
      <g transform="translate(47.416477 188.118438) scale(0.1 -0.1)">
       <defs>
        <path id="DejaVuSans-30" d="M 2034 4250 
Q 1547 4250 1301 3770 
Q 1056 3291 1056 2328 
Q 1056 1369 1301 889 
Q 1547 409 2034 409 
Q 2525 409 2770 889 
Q 3016 1369 3016 2328 
Q 3016 3291 2770 3770 
Q 2525 4250 2034 4250 
z
M 2034 4750 
Q 2819 4750 3233 4129 
Q 3647 3509 3647 2328 
Q 3647 1150 3233 529 
Q 2819 -91 2034 -91 
Q 1250 -91 836 529 
Q 422 1150 422 2328 
Q 422 3509 836 4129 
Q 1250 4750 2034 4750 
z
" transform="scale(0.015625)"/>
       </defs>
       <use xlink:href="#DejaVuSans-30"/>
      </g>
     </g>
    </g>
    <g id="xtick_2">
     <g id="line2d_2">
      <g>
       <use xlink:href="#mdf5b0c862c" x="135.143182" y="173.52" style="stroke: #000000; stroke-width: 0.8"/>
      </g>
     </g>
     <g id="text_2">
      <!-- 50 -->
      <g transform="translate(128.780682 188.118438) scale(0.1 -0.1)">
       <defs>
        <path id="DejaVuSans-35" d="M 691 4666 
L 3169 4666 
L 3169 4134 
L 1269 4134 
L 1269 2991 
Q 1406 3038 1543 3061 
Q 1681 3084 1819 3084 
Q 2600 3084 3056 2656 
Q 3513 2228 3513 1497 
Q 3513 744 3044 326 
Q 2575 -91 1722 -91 
Q 1428 -91 1123 -41 
Q 819 9 494 109 
L 494 744 
Q 775 591 1075 516 
Q 1375 441 1709 441 
Q 2250 441 2565 725 
Q 2881 1009 2881 1497 
Q 2881 1984 2565 2268 
Q 2250 2553 1709 2553 
Q 1456 2553 1204 2497 
Q 953 2441 691 2322 
L 691 4666 
z
" transform="scale(0.015625)"/>
       </defs>
       <use xlink:href="#DejaVuSans-35"/>
       <use xlink:href="#DejaVuSans-30" x="63.623047"/>
      </g>
     </g>
    </g>
    <g id="xtick_3">
     <g id="line2d_3">
      <g>
       <use xlink:href="#mdf5b0c862c" x="219.688636" y="173.52" style="stroke: #000000; stroke-width: 0.8"/>
      </g>
     </g>
     <g id="text_3">
      <!-- 100 -->
      <g transform="translate(210.144886 188.118438) scale(0.1 -0.1)">
       <defs>
        <path id="DejaVuSans-31" d="M 794 531 
L 1825 531 
L 1825 4091 
L 703 3866 
L 703 4441 
L 1819 4666 
L 2450 4666 
L 2450 531 
L 3481 531 
L 3481 0 
L 794 0 
L 794 531 
z
" transform="scale(0.015625)"/>
       </defs>
       <use xlink:href="#DejaVuSans-31"/>
       <use xlink:href="#DejaVuSans-30" x="63.623047"/>
       <use xlink:href="#DejaVuSans-30" x="127.246094"/>
      </g>
     </g>
    </g>
    <g id="xtick_4">
     <g id="line2d_4">
      <g>
       <use xlink:href="#mdf5b0c862c" x="304.234091" y="173.52" style="stroke: #000000; stroke-width: 0.8"/>
      </g>
     </g>
     <g id="text_4">
      <!-- 150 -->
      <g transform="translate(294.690341 188.118438) scale(0.1 -0.1)">
       <use xlink:href="#DejaVuSans-31"/>
       <use xlink:href="#DejaVuSans-35" x="63.623047"/>
       <use xlink:href="#DejaVuSans-30" x="127.246094"/>
      </g>
     </g>
    </g>
    <g id="xtick_5">
     <g id="line2d_5">
      <g>
       <use xlink:href="#mdf5b0c862c" x="388.779545" y="173.52" style="stroke: #000000; stroke-width: 0.8"/>
      </g>
     </g>
     <g id="text_5">
      <!-- 200 -->
      <g transform="translate(379.235795 188.118438) scale(0.1 -0.1)">
       <defs>
        <path id="DejaVuSans-32" d="M 1228 531 
L 3431 531 
L 3431 0 
L 469 0 
L 469 531 
Q 828 903 1448 1529 
Q 2069 2156 2228 2338 
Q 2531 2678 2651 2914 
Q 2772 3150 2772 3378 
Q 2772 3750 2511 3984 
Q 2250 4219 1831 4219 
Q 1534 4219 1204 4116 
Q 875 4013 500 3803 
L 500 4441 
Q 881 4594 1212 4672 
Q 1544 4750 1819 4750 
Q 2544 4750 2975 4387 
Q 3406 4025 3406 3419 
Q 3406 3131 3298 2873 
Q 3191 2616 2906 2266 
Q 2828 2175 2409 1742 
Q 1991 1309 1228 531 
z
" transform="scale(0.015625)"/>
       </defs>
       <use xlink:href="#DejaVuSans-32"/>
       <use xlink:href="#DejaVuSans-30" x="63.623047"/>
       <use xlink:href="#DejaVuSans-30" x="127.246094"/>
      </g>
     </g>
    </g>
    <g id="xtick_6">
     <g id="line2d_6">
      <g>
       <use xlink:href="#mdf5b0c862c" x="473.325" y="173.52" style="stroke: #000000; stroke-width: 0.8"/>
      </g>
     </g>
     <g id="text_6">
      <!-- 250 -->
      <g transform="translate(463.78125 188.118438) scale(0.1 -0.1)">
       <use xlink:href="#DejaVuSans-32"/>
       <use xlink:href="#DejaVuSans-35" x="63.623047"/>
       <use xlink:href="#DejaVuSans-30" x="127.246094"/>
      </g>
     </g>
    </g>
    <g id="xtick_7">
     <g id="line2d_7">
      <g>
       <use xlink:href="#mdf5b0c862c" x="557.870455" y="173.52" style="stroke: #000000; stroke-width: 0.8"/>
      </g>
     </g>
     <g id="text_7">
      <!-- 300 -->
      <g transform="translate(548.326705 188.118438) scale(0.1 -0.1)">
       <defs>
        <path id="DejaVuSans-33" d="M 2597 2516 
Q 3050 2419 3304 2112 
Q 3559 1806 3559 1356 
Q 3559 666 3084 287 
Q 2609 -91 1734 -91 
Q 1441 -91 1130 -33 
Q 819 25 488 141 
L 488 750 
Q 750 597 1062 519 
Q 1375 441 1716 441 
Q 2309 441 2620 675 
Q 2931 909 2931 1356 
Q 2931 1769 2642 2001 
Q 2353 2234 1838 2234 
L 1294 2234 
L 1294 2753 
L 1863 2753 
Q 2328 2753 2575 2939 
Q 2822 3125 2822 3475 
Q 2822 3834 2567 4026 
Q 2313 4219 1838 4219 
Q 1578 4219 1281 4162 
Q 984 4106 628 3988 
L 628 4550 
Q 988 4650 1302 4700 
Q 1616 4750 1894 4750 
Q 2613 4750 3031 4423 
Q 3450 4097 3450 3541 
Q 3450 3153 3228 2886 
Q 3006 2619 2597 2516 
z
" transform="scale(0.015625)"/>
       </defs>
       <use xlink:href="#DejaVuSans-33"/>
       <use xlink:href="#DejaVuSans-30" x="63.623047"/>
       <use xlink:href="#DejaVuSans-30" x="127.246094"/>
      </g>
     </g>
    </g>
    <g id="text_8">
     <!-- Clk -->
     <g transform="translate(298.149219 201.796563) scale(0.1 -0.1)">
      <defs>
       <path id="DejaVuSans-43" d="M 4122 4306 
L 4122 3641 
Q 3803 3938 3442 4084 
Q 3081 4231 2675 4231 
Q 1875 4231 1450 3742 
Q 1025 3253 1025 2328 
Q 1025 1406 1450 917 
Q 1875 428 2675 428 
Q 3081 428 3442 575 
Q 3803 722 4122 1019 
L 4122 359 
Q 3791 134 3420 21 
Q 3050 -91 2638 -91 
Q 1578 -91 968 557 
Q 359 1206 359 2328 
Q 359 3453 968 4101 
Q 1578 4750 2638 4750 
Q 3056 4750 3426 4639 
Q 3797 4528 4122 4306 
z
" transform="scale(0.015625)"/>
       <path id="DejaVuSans-6c" d="M 603 4863 
L 1178 4863 
L 1178 0 
L 603 0 
L 603 4863 
z
" transform="scale(0.015625)"/>
       <path id="DejaVuSans-6b" d="M 581 4863 
L 1159 4863 
L 1159 1991 
L 2875 3500 
L 3609 3500 
L 1753 1863 
L 3688 0 
L 2938 0 
L 1159 1709 
L 1159 0 
L 581 0 
L 581 4863 
z
" transform="scale(0.015625)"/>
      </defs>
      <use xlink:href="#DejaVuSans-43"/>
      <use xlink:href="#DejaVuSans-6c" x="69.824219"/>
      <use xlink:href="#DejaVuSans-6b" x="97.607422"/>
     </g>
    </g>
   </g>
   <g id="matplotlib.axis_2">
    <g id="ytick_1">
     <g id="line2d_8">
      <defs>
       <path id="m19d7fc44da" d="M 0 0 
L -3.5 0 
" style="stroke: #000000; stroke-width: 0.8"/>
      </defs>
      <g>
       <use xlink:href="#m19d7fc44da" x="26.925" y="160.220498" style="stroke: #000000; stroke-width: 0.8"/>
      </g>
     </g>
     <g id="text_9">
      <!-- 6 -->
      <g transform="translate(13.5625 164.019717) scale(0.1 -0.1)">
       <defs>
        <path id="DejaVuSans-36" d="M 2113 2584 
Q 1688 2584 1439 2293 
Q 1191 2003 1191 1497 
Q 1191 994 1439 701 
Q 1688 409 2113 409 
Q 2538 409 2786 701 
Q 3034 994 3034 1497 
Q 3034 2003 2786 2293 
Q 2538 2584 2113 2584 
z
M 3366 4563 
L 3366 3988 
Q 3128 4100 2886 4159 
Q 2644 4219 2406 4219 
Q 1781 4219 1451 3797 
Q 1122 3375 1075 2522 
Q 1259 2794 1537 2939 
Q 1816 3084 2150 3084 
Q 2853 3084 3261 2657 
Q 3669 2231 3669 1497 
Q 3669 778 3244 343 
Q 2819 -91 2113 -91 
Q 1303 -91 875 529 
Q 447 1150 447 2328 
Q 447 3434 972 4092 
Q 1497 4750 2381 4750 
Q 2619 4750 2861 4703 
Q 3103 4656 3366 4563 
z
" transform="scale(0.015625)"/>
       </defs>
       <use xlink:href="#DejaVuSans-36"/>
      </g>
     </g>
    </g>
    <g id="ytick_2">
     <g id="line2d_9">
      <g>
       <use xlink:href="#m19d7fc44da" x="26.925" y="124.348612" style="stroke: #000000; stroke-width: 0.8"/>
      </g>
     </g>
     <g id="text_10">
      <!-- 8 -->
      <g transform="translate(13.5625 128.147831) scale(0.1 -0.1)">
       <defs>
        <path id="DejaVuSans-38" d="M 2034 2216 
Q 1584 2216 1326 1975 
Q 1069 1734 1069 1313 
Q 1069 891 1326 650 
Q 1584 409 2034 409 
Q 2484 409 2743 651 
Q 3003 894 3003 1313 
Q 3003 1734 2745 1975 
Q 2488 2216 2034 2216 
z
M 1403 2484 
Q 997 2584 770 2862 
Q 544 3141 544 3541 
Q 544 4100 942 4425 
Q 1341 4750 2034 4750 
Q 2731 4750 3128 4425 
Q 3525 4100 3525 3541 
Q 3525 3141 3298 2862 
Q 3072 2584 2669 2484 
Q 3125 2378 3379 2068 
Q 3634 1759 3634 1313 
Q 3634 634 3220 271 
Q 2806 -91 2034 -91 
Q 1263 -91 848 271 
Q 434 634 434 1313 
Q 434 1759 690 2068 
Q 947 2378 1403 2484 
z
M 1172 3481 
Q 1172 3119 1398 2916 
Q 1625 2713 2034 2713 
Q 2441 2713 2670 2916 
Q 2900 3119 2900 3481 
Q 2900 3844 2670 4047 
Q 2441 4250 2034 4250 
Q 1625 4250 1398 4047 
Q 1172 3844 1172 3481 
z
" transform="scale(0.015625)"/>
       </defs>
       <use xlink:href="#DejaVuSans-38"/>
      </g>
     </g>
    </g>
    <g id="ytick_3">
     <g id="line2d_10">
      <g>
       <use xlink:href="#m19d7fc44da" x="26.925" y="88.476726" style="stroke: #000000; stroke-width: 0.8"/>
      </g>
     </g>
     <g id="text_11">
      <!-- 10 -->
      <g transform="translate(7.2 92.275945) scale(0.1 -0.1)">
       <use xlink:href="#DejaVuSans-31"/>
       <use xlink:href="#DejaVuSans-30" x="63.623047"/>
      </g>
     </g>
    </g>
    <g id="ytick_4">
     <g id="line2d_11">
      <g>
       <use xlink:href="#m19d7fc44da" x="26.925" y="52.60484" style="stroke: #000000; stroke-width: 0.8"/>
      </g>
     </g>
     <g id="text_12">
      <!-- 12 -->
      <g transform="translate(7.2 56.404059) scale(0.1 -0.1)">
       <use xlink:href="#DejaVuSans-31"/>
       <use xlink:href="#DejaVuSans-32" x="63.623047"/>
      </g>
     </g>
    </g>
    <g id="ytick_5">
     <g id="line2d_12">
      <g>
       <use xlink:href="#m19d7fc44da" x="26.925" y="16.732954" style="stroke: #000000; stroke-width: 0.8"/>
      </g>
     </g>
     <g id="text_13">
      <!-- 14 -->
      <g transform="translate(7.2 20.532172) scale(0.1 -0.1)">
       <defs>
        <path id="DejaVuSans-34" d="M 2419 4116 
L 825 1625 
L 2419 1625 
L 2419 4116 
z
M 2253 4666 
L 3047 4666 
L 3047 1625 
L 3713 1625 
L 3713 1100 
L 3047 1100 
L 3047 0 
L 2419 0 
L 2419 1100 
L 313 1100 
L 313 1709 
L 2253 4666 
z
" transform="scale(0.015625)"/>
       </defs>
       <use xlink:href="#DejaVuSans-31"/>
       <use xlink:href="#DejaVuSans-34" x="63.623047"/>
      </g>
     </g>
    </g>
   </g>
   <g id="line2d_13">
    <path d="M 52.288636 141.208399 
L 53.979545 141.387758 
L 55.670455 132.419786 
L 57.361364 140.84968 
L 59.052273 141.387758 
L 60.743182 139.773523 
L 62.434091 141.208399 
L 64.125 142.822633 
L 65.815909 144.257509 
L 67.506818 141.746477 
L 69.197727 141.925836 
L 70.888636 141.925836 
L 72.579545 142.105196 
L 74.270455 141.925836 
L 75.961364 133.137224 
L 77.652273 141.567117 
L 79.343182 141.567117 
L 81.034091 141.746477 
L 82.725 141.208399 
L 84.415909 141.029039 
L 86.106818 140.490961 
L 87.797727 141.567117 
L 89.488636 142.284555 
L 91.179545 144.795587 
L 92.870455 141.925836 
L 94.561364 141.925836 
L 96.252273 132.957865 
L 97.943182 141.746477 
L 101.325 142.105196 
L 103.015909 141.387758 
L 104.706818 141.925836 
L 106.397727 141.925836 
L 108.088636 142.105196 
L 109.779545 141.925836 
L 111.470455 141.925836 
L 113.161364 142.105196 
L 114.852273 142.105196 
L 116.543182 135.110178 
L 118.234091 143.181352 
L 119.925 141.925836 
L 121.615909 139.235445 
L 123.306818 140.84968 
L 124.997727 141.567117 
L 128.379545 141.925836 
L 130.070455 142.284555 
L 133.452273 142.284555 
L 135.143182 141.208399 
L 136.834091 106.950747 
L 138.525 102.108043 
L 140.215909 107.668185 
L 141.906818 113.766406 
L 143.597727 106.23331 
L 145.288636 107.309466 
L 146.979545 89.014804 
L 148.670455 64.621922 
L 150.361364 65.698078 
L 152.052273 68.38847 
L 153.743182 49.914448 
L 155.434091 37.359288 
L 157.125 28.929395 
L 158.815909 38.973523 
L 160.506818 41.484555 
L 162.197727 27.135801 
L 163.888636 14.76 
L 165.579545 16.374235 
L 167.270455 17.450391 
L 168.961364 18.167829 
L 170.652273 18.705907 
L 172.343182 15.477438 
L 174.034091 19.782064 
L 175.725 21.21694 
L 177.415909 16.912313 
L 179.106818 18.167829 
L 180.797727 19.064626 
L 182.488636 21.396299 
L 184.179545 24.08669 
L 185.870455 23.907331 
L 187.561364 24.804128 
L 189.252273 25.162847 
L 190.943182 24.804128 
L 192.634091 24.624769 
L 194.325 23.907331 
L 196.015909 24.624769 
L 197.706818 23.189893 
L 199.397727 24.08669 
L 201.088636 25.700925 
L 202.779545 23.548612 
L 204.470455 24.983488 
L 206.161364 24.624769 
L 207.852273 26.418363 
L 209.543182 25.342206 
L 211.234091 25.521566 
L 212.925 23.907331 
L 214.615909 25.342206 
L 216.306818 24.08669 
L 217.997727 21.755018 
L 219.688636 24.26605 
L 221.379545 25.880285 
L 223.070455 23.548612 
L 224.761364 24.804128 
L 226.452273 24.26605 
L 228.143182 24.445409 
L 229.834091 24.26605 
L 231.525 24.624769 
L 233.215909 23.010534 
L 234.906818 25.342206 
L 236.597727 25.521566 
L 238.288636 23.010534 
L 239.979545 23.189893 
L 241.670455 24.26605 
L 243.361364 24.445409 
L 245.052273 24.983488 
L 246.743182 24.804128 
L 248.434091 23.727972 
L 250.125 24.983488 
L 251.815909 25.880285 
L 253.506818 24.445409 
L 255.197727 25.162847 
L 256.888636 23.907331 
L 258.579545 23.548612 
L 260.270455 24.26605 
L 261.961364 24.624769 
L 263.652273 24.445409 
L 265.343182 25.880285 
L 267.034091 24.983488 
L 268.725 24.804128 
L 270.415909 24.983488 
L 272.106818 24.445409 
L 273.797727 25.880285 
L 275.488636 23.727972 
L 277.179545 25.521566 
L 278.870455 24.08669 
L 280.561364 24.08669 
L 282.252273 24.983488 
L 283.943182 24.26605 
L 285.634091 26.059644 
L 287.325 25.162847 
L 289.015909 26.059644 
L 290.706818 26.239004 
L 292.397727 25.521566 
L 294.088636 25.521566 
L 295.779545 24.804128 
L 297.470455 24.445409 
L 299.161364 23.369253 
L 300.852273 24.624769 
L 302.543182 23.907331 
L 304.234091 24.983488 
L 305.925 25.880285 
L 307.615909 24.804128 
L 310.997727 24.804128 
L 312.688636 24.624769 
L 316.070455 49.017651 
L 317.761364 47.582776 
L 319.452273 50.093808 
L 321.143182 69.643986 
L 322.834091 68.747189 
L 324.525 68.567829 
L 326.215909 73.231174 
L 327.906818 72.155018 
L 329.597727 72.513737 
L 331.288636 72.155018 
L 332.979545 70.361423 
L 334.670455 75.562847 
L 336.361364 72.693096 
L 338.052273 71.43758 
L 339.743182 67.491673 
L 341.434091 68.926548 
L 343.125 73.410534 
L 344.815909 72.155018 
L 348.197727 70.720142 
L 349.888636 71.975658 
L 351.579545 71.258221 
L 353.270455 70.361423 
L 354.961364 71.258221 
L 356.652273 71.796299 
L 358.343182 74.66605 
L 360.034091 66.953594 
L 361.725 68.38847 
L 365.106818 71.975658 
L 366.797727 72.334377 
L 368.488636 71.258221 
L 370.179545 72.693096 
L 373.561364 73.410534 
L 375.252273 71.61694 
L 376.943182 71.975658 
L 378.634091 70.899502 
L 380.325 68.20911 
L 382.015909 69.464626 
L 383.706818 71.61694 
L 385.397727 71.43758 
L 387.088636 70.899502 
L 388.779545 72.513737 
L 390.470455 72.872456 
L 392.161364 70.182064 
L 393.852273 70.899502 
L 395.543182 71.258221 
L 397.234091 74.48669 
L 398.925 72.155018 
L 400.615909 69.105907 
L 402.306818 67.132954 
L 403.997727 73.769253 
L 405.688636 70.899502 
L 407.379545 71.258221 
L 409.070455 72.155018 
L 410.761364 71.43758 
L 412.452273 73.410534 
L 414.143182 71.258221 
L 415.834091 70.540783 
L 417.525 72.155018 
L 419.215909 71.43758 
L 420.906818 66.415516 
L 422.597727 68.029751 
L 424.288636 71.258221 
L 425.979545 73.051815 
L 427.670455 72.155018 
L 429.361364 70.899502 
L 431.052273 71.61694 
L 432.743182 73.231174 
L 434.434091 71.078861 
L 436.125 72.155018 
L 437.815909 71.078861 
L 439.506818 71.43758 
L 441.197727 69.285267 
L 442.888636 69.823345 
L 444.579545 69.823345 
L 446.270455 71.258221 
L 447.961364 71.43758 
L 449.652273 70.720142 
L 451.343182 69.464626 
L 454.725 75.204128 
L 456.415909 71.796299 
L 458.106818 70.361423 
L 459.797727 84.889537 
L 461.488636 95.292384 
L 463.179545 97.085979 
L 464.870455 100.673167 
L 466.561364 100.135089 
L 468.252273 99.238292 
L 469.943182 97.265338 
L 471.634091 127.218363 
L 473.325 130.626192 
L 475.015909 132.419786 
L 476.706818 133.495943 
L 478.397727 160.399858 
L 480.088636 160.579217 
L 481.779545 149.997011 
L 483.470455 158.426904 
L 485.161364 160.041139 
L 486.852273 160.937936 
L 488.543182 160.579217 
L 490.234091 159.861779 
L 491.925 158.964982 
L 493.615909 160.758577 
L 495.306818 163.807687 
L 496.997727 161.655374 
L 498.688636 160.937936 
L 500.379545 160.937936 
L 502.070455 149.458932 
L 503.761364 160.041139 
L 505.452273 160.937936 
L 507.143182 160.937936 
L 508.834091 160.041139 
L 510.525 159.861779 
L 512.215909 164.525125 
L 513.906818 161.117295 
L 515.597727 160.758577 
L 517.288636 160.758577 
L 518.979545 161.296655 
L 520.670455 161.296655 
L 522.361364 151.073167 
L 524.052273 160.399858 
L 525.743182 159.144342 
L 527.434091 161.476014 
L 529.125 162.73153 
L 530.815909 161.476014 
L 532.506818 160.937936 
L 534.197727 160.041139 
L 535.888636 160.579217 
L 537.579545 161.296655 
L 539.270455 160.220498 
L 540.961364 159.323701 
L 542.652273 150.535089 
L 544.343182 161.834733 
L 546.034091 164.704484 
L 547.725 160.399858 
L 549.415909 160.579217 
L 551.106818 161.655374 
L 552.797727 160.937936 
L 554.488636 160.758577 
L 556.179545 160.758577 
L 557.870455 165.780641 
L 559.561364 165.96 
L 559.561364 165.96 
" clip-path="url(#p4e20cf214c)" style="fill: none; stroke: #1f77b4; stroke-width: 1.5; stroke-linecap: square"/>
   </g>
   <g id="patch_3">
    <path d="M 26.925 173.52 
L 26.925 7.2 
" style="fill: none; stroke: #000000; stroke-width: 0.8; stroke-linejoin: miter; stroke-linecap: square"/>
   </g>
   <g id="patch_4">
    <path d="M 584.925 173.52 
L 584.925 7.2 
" style="fill: none; stroke: #000000; stroke-width: 0.8; stroke-linejoin: miter; stroke-linecap: square"/>
   </g>
   <g id="patch_5">
    <path d="M 26.925 173.52 
L 584.925 173.52 
" style="fill: none; stroke: #000000; stroke-width: 0.8; stroke-linejoin: miter; stroke-linecap: square"/>
   </g>
   <g id="patch_6">
    <path d="M 26.925 7.2 
L 584.925 7.2 
" style="fill: none; stroke: #000000; stroke-width: 0.8; stroke-linejoin: miter; stroke-linecap: square"/>
   </g>
   <g id="legend_1">
    <g id="patch_7">
     <path d="M 454.639063 29.878125 
L 577.925 29.878125 
Q 579.925 29.878125 579.925 27.878125 
L 579.925 14.2 
Q 579.925 12.2 577.925 12.2 
L 454.639063 12.2 
Q 452.639063 12.2 452.639063 14.2 
L 452.639063 27.878125 
Q 452.639063 29.878125 454.639063 29.878125 
z
" style="fill: #ffffff; opacity: 0.8; stroke: #cccccc; stroke-linejoin: miter"/>
    </g>
    <g id="line2d_14">
     <path d="M 456.639063 20.298438 
L 466.639063 20.298438 
L 476.639063 20.298438 
" style="fill: none; stroke: #1f77b4; stroke-width: 1.5; stroke-linecap: square"/>
    </g>
    <g id="text_14">
     <!-- (PkgWatt, Overall) -->
     <g transform="translate(484.639063 23.798438) scale(0.1 -0.1)">
      <defs>
       <path id="DejaVuSans-28" d="M 1984 4856 
Q 1566 4138 1362 3434 
Q 1159 2731 1159 2009 
Q 1159 1288 1364 580 
Q 1569 -128 1984 -844 
L 1484 -844 
Q 1016 -109 783 600 
Q 550 1309 550 2009 
Q 550 2706 781 3412 
Q 1013 4119 1484 4856 
L 1984 4856 
z
" transform="scale(0.015625)"/>
       <path id="DejaVuSans-50" d="M 1259 4147 
L 1259 2394 
L 2053 2394 
Q 2494 2394 2734 2622 
Q 2975 2850 2975 3272 
Q 2975 3691 2734 3919 
Q 2494 4147 2053 4147 
L 1259 4147 
z
M 628 4666 
L 2053 4666 
Q 2838 4666 3239 4311 
Q 3641 3956 3641 3272 
Q 3641 2581 3239 2228 
Q 2838 1875 2053 1875 
L 1259 1875 
L 1259 0 
L 628 0 
L 628 4666 
z
" transform="scale(0.015625)"/>
       <path id="DejaVuSans-67" d="M 2906 1791 
Q 2906 2416 2648 2759 
Q 2391 3103 1925 3103 
Q 1463 3103 1205 2759 
Q 947 2416 947 1791 
Q 947 1169 1205 825 
Q 1463 481 1925 481 
Q 2391 481 2648 825 
Q 2906 1169 2906 1791 
z
M 3481 434 
Q 3481 -459 3084 -895 
Q 2688 -1331 1869 -1331 
Q 1566 -1331 1297 -1286 
Q 1028 -1241 775 -1147 
L 775 -588 
Q 1028 -725 1275 -790 
Q 1522 -856 1778 -856 
Q 2344 -856 2625 -561 
Q 2906 -266 2906 331 
L 2906 616 
Q 2728 306 2450 153 
Q 2172 0 1784 0 
Q 1141 0 747 490 
Q 353 981 353 1791 
Q 353 2603 747 3093 
Q 1141 3584 1784 3584 
Q 2172 3584 2450 3431 
Q 2728 3278 2906 2969 
L 2906 3500 
L 3481 3500 
L 3481 434 
z
" transform="scale(0.015625)"/>
       <path id="DejaVuSans-57" d="M 213 4666 
L 850 4666 
L 1831 722 
L 2809 4666 
L 3519 4666 
L 4500 722 
L 5478 4666 
L 6119 4666 
L 4947 0 
L 4153 0 
L 3169 4050 
L 2175 0 
L 1381 0 
L 213 4666 
z
" transform="scale(0.015625)"/>
       <path id="DejaVuSans-61" d="M 2194 1759 
Q 1497 1759 1228 1600 
Q 959 1441 959 1056 
Q 959 750 1161 570 
Q 1363 391 1709 391 
Q 2188 391 2477 730 
Q 2766 1069 2766 1631 
L 2766 1759 
L 2194 1759 
z
M 3341 1997 
L 3341 0 
L 2766 0 
L 2766 531 
Q 2569 213 2275 61 
Q 1981 -91 1556 -91 
Q 1019 -91 701 211 
Q 384 513 384 1019 
Q 384 1609 779 1909 
Q 1175 2209 1959 2209 
L 2766 2209 
L 2766 2266 
Q 2766 2663 2505 2880 
Q 2244 3097 1772 3097 
Q 1472 3097 1187 3025 
Q 903 2953 641 2809 
L 641 3341 
Q 956 3463 1253 3523 
Q 1550 3584 1831 3584 
Q 2591 3584 2966 3190 
Q 3341 2797 3341 1997 
z
" transform="scale(0.015625)"/>
       <path id="DejaVuSans-74" d="M 1172 4494 
L 1172 3500 
L 2356 3500 
L 2356 3053 
L 1172 3053 
L 1172 1153 
Q 1172 725 1289 603 
Q 1406 481 1766 481 
L 2356 481 
L 2356 0 
L 1766 0 
Q 1100 0 847 248 
Q 594 497 594 1153 
L 594 3053 
L 172 3053 
L 172 3500 
L 594 3500 
L 594 4494 
L 1172 4494 
z
" transform="scale(0.015625)"/>
       <path id="DejaVuSans-2c" d="M 750 794 
L 1409 794 
L 1409 256 
L 897 -744 
L 494 -744 
L 750 256 
L 750 794 
z
" transform="scale(0.015625)"/>
       <path id="DejaVuSans-20" transform="scale(0.015625)"/>
       <path id="DejaVuSans-4f" d="M 2522 4238 
Q 1834 4238 1429 3725 
Q 1025 3213 1025 2328 
Q 1025 1447 1429 934 
Q 1834 422 2522 422 
Q 3209 422 3611 934 
Q 4013 1447 4013 2328 
Q 4013 3213 3611 3725 
Q 3209 4238 2522 4238 
z
M 2522 4750 
Q 3503 4750 4090 4092 
Q 4678 3434 4678 2328 
Q 4678 1225 4090 567 
Q 3503 -91 2522 -91 
Q 1538 -91 948 565 
Q 359 1222 359 2328 
Q 359 3434 948 4092 
Q 1538 4750 2522 4750 
z
" transform="scale(0.015625)"/>
       <path id="DejaVuSans-76" d="M 191 3500 
L 800 3500 
L 1894 563 
L 2988 3500 
L 3597 3500 
L 2284 0 
L 1503 0 
L 191 3500 
z
" transform="scale(0.015625)"/>
       <path id="DejaVuSans-65" d="M 3597 1894 
L 3597 1613 
L 953 1613 
Q 991 1019 1311 708 
Q 1631 397 2203 397 
Q 2534 397 2845 478 
Q 3156 559 3463 722 
L 3463 178 
Q 3153 47 2828 -22 
Q 2503 -91 2169 -91 
Q 1331 -91 842 396 
Q 353 884 353 1716 
Q 353 2575 817 3079 
Q 1281 3584 2069 3584 
Q 2775 3584 3186 3129 
Q 3597 2675 3597 1894 
z
M 3022 2063 
Q 3016 2534 2758 2815 
Q 2500 3097 2075 3097 
Q 1594 3097 1305 2825 
Q 1016 2553 972 2059 
L 3022 2063 
z
" transform="scale(0.015625)"/>
       <path id="DejaVuSans-72" d="M 2631 2963 
Q 2534 3019 2420 3045 
Q 2306 3072 2169 3072 
Q 1681 3072 1420 2755 
Q 1159 2438 1159 1844 
L 1159 0 
L 581 0 
L 581 3500 
L 1159 3500 
L 1159 2956 
Q 1341 3275 1631 3429 
Q 1922 3584 2338 3584 
Q 2397 3584 2469 3576 
Q 2541 3569 2628 3553 
L 2631 2963 
z
" transform="scale(0.015625)"/>
       <path id="DejaVuSans-29" d="M 513 4856 
L 1013 4856 
Q 1481 4119 1714 3412 
Q 1947 2706 1947 2009 
Q 1947 1309 1714 600 
Q 1481 -109 1013 -844 
L 513 -844 
Q 928 -128 1133 580 
Q 1338 1288 1338 2009 
Q 1338 2731 1133 3434 
Q 928 4138 513 4856 
z
" transform="scale(0.015625)"/>
      </defs>
      <use xlink:href="#DejaVuSans-28"/>
      <use xlink:href="#DejaVuSans-50" x="39.013672"/>
      <use xlink:href="#DejaVuSans-6b" x="99.316406"/>
      <use xlink:href="#DejaVuSans-67" x="157.226562"/>
      <use xlink:href="#DejaVuSans-57" x="220.703125"/>
      <use xlink:href="#DejaVuSans-61" x="313.205078"/>
      <use xlink:href="#DejaVuSans-74" x="374.484375"/>
      <use xlink:href="#DejaVuSans-74" x="413.693359"/>
      <use xlink:href="#DejaVuSans-2c" x="452.902344"/>
      <use xlink:href="#DejaVuSans-20" x="484.689453"/>
      <use xlink:href="#DejaVuSans-4f" x="516.476562"/>
      <use xlink:href="#DejaVuSans-76" x="595.1875"/>
      <use xlink:href="#DejaVuSans-65" x="654.367188"/>
      <use xlink:href="#DejaVuSans-72" x="715.890625"/>
      <use xlink:href="#DejaVuSans-61" x="757.003906"/>
      <use xlink:href="#DejaVuSans-6c" x="818.283203"/>
      <use xlink:href="#DejaVuSans-6c" x="846.066406"/>
      <use xlink:href="#DejaVuSans-29" x="873.849609"/>
     </g>
    </g>
   </g>
  </g>
 </g>
 <defs>
  <clipPath id="p4e20cf214c">
   <rect x="26.925" y="7.2" width="558" height="166.32"/>
  </clipPath>
 </defs>
</svg>
